<svg width="31" height="31" viewBox="0 0 31 31" fill="none" xmlns="http://www.w3.org/2000/svg">
<path fill-rule="evenodd" clip-rule="evenodd" d="M26.1562 2.42188H24.582V1.21094C24.582 0.542137 24.0399 0 23.3711 0C22.7023 0 22.1602 0.542137 22.1602 1.21094V2.42188H16.6504V1.21094C16.6504 0.542137 16.1083 0 15.4395 0C14.7707 0 14.2285 0.542137 14.2285 1.21094V2.42188H8.7793V1.21094C8.7793 0.542137 8.23716 0 7.56836 0C6.89956 0 6.35742 0.542137 6.35742 1.21094V2.42188H4.84375C2.17291 2.42188 0 4.59478 0 7.26562V26.1562C0 28.8271 2.17291 31 4.84375 31H14.1074C14.7762 31 15.3184 30.4579 15.3184 29.7891C15.3184 29.1203 14.7762 28.5781 14.1074 28.5781H4.84375C3.50833 28.5781 2.42188 27.4917 2.42188 26.1562V7.26562C2.42188 5.9302 3.50833 4.84375 4.84375 4.84375H6.35742V6.05469C6.35742 6.72349 6.89956 7.26562 7.56836 7.26562C8.23716 7.26562 8.7793 6.72349 8.7793 6.05469V4.84375H14.2285V6.05469C14.2285 6.72349 14.7707 7.26562 15.4395 7.26562C16.1083 7.26562 16.6504 6.72349 16.6504 6.05469V4.84375H22.1602V6.05469C22.1602 6.72349 22.7023 7.26562 23.3711 7.26562C24.0399 7.26562 24.582 6.72349 24.582 6.05469V4.84375H26.1562C27.4917 4.84375 28.5781 5.9302 28.5781 7.26562V14.168C28.5781 14.8368 29.1203 15.3789 29.7891 15.3789C30.4579 15.3789 31 14.8368 31 14.168V7.26562C31 4.59478 28.8271 2.42188 26.1562 2.42188ZM25 12.5C25 13.3284 24.3284 14 23.5 14C22.6716 14 22 13.3284 22 12.5C22 11.6716 22.6716 11 23.5 11C24.3284 11 25 11.6716 25 12.5ZM23.5 16C19.3645 16 16 19.3645 16 23.5C16 27.6355 19.3645 31 23.5 31C27.6355 31 31 27.6355 31 23.5C31 19.3645 27.6355 16 23.5 16ZM23.5 28.5207C20.7316 28.5207 18.4793 26.2684 18.4793 23.5C18.4793 20.7316 20.7316 18.4793 23.5 18.4793C26.2684 18.4793 28.5207 20.7316 28.5207 23.5C28.5207 26.2684 26.2684 28.5207 23.5 28.5207ZM25.8406 22.5309H25.3188V21.2346C25.3188 20.5527 24.7998 20 24.1594 20C23.5191 20 23 20.5527 23 21.2346V23.7654C23 24.4473 23.5191 25 24.1594 25H25.8406C26.4809 25 27 24.4473 27 23.7654C27 23.0836 26.4809 22.5309 25.8406 22.5309ZM18.5 14C19.3284 14 20 13.3284 20 12.5C20 11.6716 19.3284 11 18.5 11C17.6716 11 17 11.6716 17 12.5C17 13.3284 17.6716 14 18.5 14ZM14 18.5C14 19.3284 13.3284 20 12.5 20C11.6716 20 11 19.3284 11 18.5C11 17.6716 11.6716 17 12.5 17C13.3284 17 14 17.6716 14 18.5ZM7.5 14C8.32843 14 9 13.3284 9 12.5C9 11.6716 8.32843 11 7.5 11C6.67157 11 6 11.6716 6 12.5C6 13.3284 6.67157 14 7.5 14ZM9 18.5C9 19.3284 8.32843 20 7.5 20C6.67157 20 6 19.3284 6 18.5C6 17.6716 6.67157 17 7.5 17C8.32843 17 9 17.6716 9 18.5ZM7.5 25C8.32843 25 9 24.3284 9 23.5C9 22.6716 8.32843 22 7.5 22C6.67157 22 6 22.6716 6 23.5C6 24.3284 6.67157 25 7.5 25ZM14 23.5C14 24.3284 13.3284 25 12.5 25C11.6716 25 11 24.3284 11 23.5C11 22.6716 11.6716 22 12.5 22C13.3284 22 14 22.6716 14 23.5ZM12.5 14C13.3284 14 14 13.3284 14 12.5C14 11.6716 13.3284 11 12.5 11C11.6716 11 11 11.6716 11 12.5C11 13.3284 11.6716 14 12.5 14Z" fill="#F75DB8"/>
</svg>
