<svg width="102" height="102" viewBox="0 0 102 102" fill="none" xmlns="http://www.w3.org/2000/svg">
<g id="files-and-folders" filter="url(#filter0_d_1861_18764)">
<path id="Path" d="M73.1875 87H28.8125C21.4596 87 15.5 80.9565 15.5 73.5V28.5C15.5 21.0435 21.4596 15 28.8125 15H73.1875C80.5404 15 86.5 21.0435 86.5 28.5V73.5C86.5 80.9565 80.5404 87 73.1875 87Z" fill="white"/>
<g id="Group 680">
<path id="Path_2" d="M51.3333 35.9992H49.623C49.1073 34.2757 47.46 33 45.5 33C43.54 33 41.8903 34.2757 41.377 35.9992H39.6667C39.0297 35.9992 38.5 36.51 38.5 37.1242V39.3742C38.5 40.8142 39.7297 42 41.223 42H49.777C51.2703 42 52.5 40.8142 52.5 39.3742V37.1242C52.5 36.51 51.9703 35.9992 51.3333 35.9992Z" fill="#7D2AEB"/>
<path id="Shape" fill-rule="evenodd" clip-rule="evenodd" d="M54.4565 38H54.0881V39.8743C54.0881 42.1535 52.2792 43.9985 50.0446 43.9985H41.9554C39.7208 43.9985 37.9119 42.1535 37.9119 39.8743V38H37.5435C35.3089 38 33.5 39.845 33.5 42.1242V60.8735C33.5 63.155 35.3089 65 37.5435 65H51.1608C51.2049 63.1257 51.6307 61.355 52.3675 59.7507H39.0149C38.4126 59.7507 37.9119 59.24 37.9119 58.6257C37.9119 58.0115 38.4126 57.5007 39.0149 57.5007H52.9851C53.1903 57.5007 53.3822 57.5615 53.5432 57.665C54.8072 55.82 56.5146 54.3193 58.5 53.3V42.1242C58.5 39.845 56.6911 38 54.4565 38ZM52.9851 54.875H39.0149C38.4126 54.875 37.9119 54.3643 37.9119 53.75C37.9119 53.1357 38.4126 52.625 39.0149 52.625H52.9851C53.5874 52.625 54.0881 53.1357 54.0881 53.75C54.0881 54.3643 53.5896 54.875 52.9851 54.875ZM39.0149 49.9993H52.9851C53.5896 49.9993 54.0881 49.4908 54.0881 48.8743C54.0881 48.26 53.5874 47.7493 52.9851 47.7493H39.0149C38.4126 47.7493 37.9119 48.26 37.9119 48.8743C37.9119 49.4885 38.4126 49.9993 39.0149 49.9993Z" fill="#7D2AEB"/>
<g id="Group">
<path id="Path_3" d="M55.042 69C54.2166 69 53.5459 68.3217 53.5459 67.4868V64.8393C53.5459 59.002 58.2405 54.2515 64.0139 54.2515H67.0038C67.8293 54.2515 68.4999 54.9298 68.4999 55.7647C68.4999 56.5995 67.8293 57.2779 67.0038 57.2779H64.0139C59.8913 57.2779 56.538 60.6695 56.538 64.8393V67.4868C56.538 68.3239 55.8674 69 55.042 69Z" fill="#7D2AEB"/>
<path id="Path_4" d="M62.5176 61.4386C62.3134 61.4386 62.1093 61.3955 61.9142 61.3115C61.3714 61.071 61.0215 60.5266 61.0215 59.9276V51.6085C61.0215 51.0095 61.3714 50.4651 61.9142 50.2246C62.4548 49.9841 63.0873 50.0885 63.5269 50.4946L68.0129 54.653C68.3247 54.9366 68.4996 55.3427 68.4996 55.7669C68.4996 56.1912 68.3247 56.595 68.0151 56.8831L63.5291 61.0415C63.2488 61.3002 62.8854 61.4386 62.5176 61.4386Z" fill="#7D2AEB"/>
</g>
</g>
</g>
<defs>
<filter id="filter0_d_1861_18764" x="0.5" y="0" width="101" height="102" filterUnits="userSpaceOnUse" color-interpolation-filters="sRGB">
<feFlood flood-opacity="0" result="BackgroundImageFix"/>
<feColorMatrix in="SourceAlpha" type="matrix" values="0 0 0 0 0 0 0 0 0 0 0 0 0 0 0 0 0 0 127 0" result="hardAlpha"/>
<feOffset/>
<feGaussianBlur stdDeviation="7.5"/>
<feColorMatrix type="matrix" values="0 0 0 0 0.0509804 0 0 0 0 0.113725 0 0 0 0 0.290196 0 0 0 0.11 0"/>
<feBlend mode="normal" in2="BackgroundImageFix" result="effect1_dropShadow_1861_18764"/>
<feBlend mode="normal" in="SourceGraphic" in2="effect1_dropShadow_1861_18764" result="shape"/>
</filter>
</defs>
</svg>
