<svg width="320" height="151" viewBox="0 0 320 151" fill="none" xmlns="http://www.w3.org/2000/svg">
<mask id="mask0_1863_19105" style="mask-type:luminance" maskUnits="userSpaceOnUse" x="0" y="0" width="792" height="151">
<rect width="792" height="151" fill="white"/>
</mask>
<g mask="url(#mask0_1863_19105)">
<path fill-rule="evenodd" clip-rule="evenodd" d="M-116.148 125.637C-118.758 126.034 -120.966 126.24 -122.557 126.347V123.55C-121.085 123.446 -119.083 123.252 -116.715 122.892L-115.117 122.649L-114.55 125.394L-116.148 125.637ZM1053.33 124.846L1051.89 124.494L1052.55 121.416L1053.98 121.767C1057.44 122.614 1060.4 123 1062.36 123.175V126.347C1060.3 126.174 1057.11 125.773 1053.33 124.846ZM858.951 122.649L858.514 125.597L860.043 125.808C863.915 126.341 866.412 126.347 866.517 126.347C866.611 126.347 868.854 126.342 872.378 125.889L873.91 125.692L873.502 122.74L871.97 122.937C868.667 123.361 866.537 123.369 866.516 123.369C866.494 123.369 864.115 123.36 860.481 122.859L858.951 122.649ZM63.3719 122.649L62.8182 125.276L64.3412 125.514C69.5912 126.337 73.1682 126.347 73.3179 126.347C73.3696 126.347 74.6074 126.345 76.6734 126.181L78.2147 126.059L77.9317 123.401L76.3901 123.523C74.4802 123.674 73.3284 123.677 73.3169 123.677C73.2848 123.677 69.8487 123.664 64.895 122.888L63.3719 122.649ZM680.488 121.416L678.968 121.756C672.888 123.114 668.459 123.135 668.415 123.135C668.414 123.135 668.068 123.134 667.447 123.104L665.894 123.029L665.748 126.237L667.301 126.312C668.003 126.347 668.399 126.347 668.416 126.347C668.608 126.347 673.197 126.33 679.625 124.895L681.145 124.556L680.488 121.416ZM256.385 120.8L255.583 123.795L257.088 124.194C262.156 125.539 266.477 126.048 269.209 126.239L270.762 126.347L270.98 123.255L269.426 123.146C267.301 122.998 262.975 122.548 257.89 121.199L256.385 120.8ZM487.475 120.8L485.986 121.214C481.343 122.505 477.194 123.095 474.53 123.362L472.983 123.517L473.323 126.347L474.87 126.192C477.665 125.911 482.019 125.293 486.891 123.938L488.38 123.524L487.475 120.8ZM450.023 118.335L448.965 121.269L450.43 121.798C454.202 123.161 458.203 124.192 462.323 124.864L463.861 125.114L464.361 122.035L462.824 121.785C458.893 121.144 455.079 120.162 451.488 118.864L450.023 118.335ZM293.191 117.718L291.747 118.369C288.237 119.95 284.459 121.188 280.519 122.048L278.986 122.383L279.599 125.731L281.131 125.396C285.269 124.492 289.242 123.19 292.938 121.525L294.383 120.875L293.191 117.718ZM643.091 116.486L641.729 119.302L643.147 119.978C646.757 121.699 650.691 123.092 654.839 124.12L656.365 124.498L657.126 121.467L655.6 121.089C651.658 120.112 647.926 118.791 644.508 117.161L643.091 116.486ZM99.5139 115.869L98.117 116.615C94.7612 118.405 91.0636 119.885 87.1272 121.013L85.6055 121.449L86.476 124.498L87.998 124.062C92.1479 122.872 96.0531 121.309 99.6049 119.414L101.002 118.668L99.5139 115.869ZM895.122 114.637L893.806 115.4C890.651 117.23 887.142 118.768 883.373 119.974L881.916 120.44L882.877 123.265L884.334 122.799C888.317 121.525 892.033 119.895 895.38 117.953L896.697 117.19L895.122 114.637ZM837.338 114.637L835.726 117.132L837.036 117.9C840.368 119.853 844.077 121.499 848.058 122.792L849.514 123.265L850.507 120.492L849.051 120.019C845.286 118.796 841.786 117.243 838.648 115.405L837.338 114.637ZM-94.1304 112.788L-95.4161 113.682C-98.4924 115.82 -101.955 117.648 -105.707 119.115L-107.16 119.683L-106.047 122.649L-104.595 122.081C-100.617 120.526 -96.9401 118.583 -93.665 116.306L-92.3793 115.413L-94.1304 112.788ZM42.4172 112.788L40.6475 115.384L41.93 116.28C45.1975 118.562 48.8705 120.513 52.847 122.077L54.2992 122.649L55.4282 119.709L53.9759 119.137C50.2253 117.662 46.768 115.827 43.6997 113.684L42.4172 112.788ZM700.782 112.171L699.526 113.139C696.521 115.453 693.103 117.455 689.369 119.09L687.919 119.725L689.177 122.649L690.627 122.015C694.596 120.277 698.235 118.143 701.444 115.672L702.7 114.705L700.782 112.171ZM1031.06 110.939L1029.11 113.421L1030.36 114.391C1033.55 116.867 1037.18 119.014 1041.15 120.774L1042.59 121.416L1043.89 118.54L1042.44 117.898C1038.71 116.242 1035.3 114.227 1032.31 111.908L1031.06 110.939ZM236.17 109.706L234.028 111.943L235.243 112.929C238.362 115.462 241.949 117.676 245.905 119.512L247.351 120.184L248.809 117.521L247.363 116.85C243.654 115.128 240.297 113.056 237.385 110.692L236.17 109.706ZM506.583 107.857L505.499 108.972C502.893 111.651 499.858 114.018 496.478 116.005L495.154 116.783L496.634 119.567L497.958 118.789C501.571 116.664 504.822 114.129 507.619 111.253L508.703 110.138L506.583 107.857ZM430.987 106.008L428.641 108.014L429.683 109.142C432.388 112.071 435.581 114.682 439.173 116.902L440.493 117.718L442.19 115.178L440.869 114.362C437.518 112.291 434.544 109.86 432.029 107.137L430.987 106.008ZM311.131 104.159L310.224 105.359C308.019 108.272 305.372 110.89 302.355 113.138L301.157 114.031L302.902 116.486L304.1 115.592C307.342 113.175 310.191 110.358 312.566 107.218L313.474 106.019L311.131 104.159ZM627.088 101.078L624.485 102.836L625.345 104.166C627.616 107.677 630.394 110.855 633.602 113.611L634.796 114.637L636.803 112.195L635.609 111.169C632.63 108.611 630.053 105.663 627.948 102.408L627.088 101.078ZM114.967 100.461L114.184 101.797C112.257 105.087 109.859 108.08 107.059 110.696L105.929 111.752L108.034 114.02L109.164 112.965C112.183 110.144 114.768 106.916 116.847 103.368L117.63 102.032L114.967 100.461ZM909.81 98.6122L909.069 99.9532C907.229 103.28 904.895 106.324 902.132 109.002L901.008 110.091L903.363 112.171L904.488 111.082C907.468 108.194 909.985 104.911 911.968 101.325L912.709 99.9842L909.81 98.6122ZM822.979 97.3797L820.33 98.7656L820.984 100.169C822.736 103.926 824.972 107.371 827.629 110.408L828.633 111.555L830.8 109.427L829.795 108.28C827.332 105.465 825.259 102.269 823.633 98.7829L822.979 97.3797ZM-79.8414 95.5305L-80.4604 96.9373C-82.009 100.456 -84.0259 103.696 -86.4553 106.566L-87.4521 107.744L-85.0584 109.706L-84.0616 108.528C-81.4417 105.433 -79.2683 101.943 -77.6016 98.1555L-76.9825 96.7489L-79.8414 95.5305ZM28.1386 94.9143L25.251 96.1116L25.8652 97.5188C27.5204 101.31 29.6852 104.805 32.2995 107.908L33.2952 109.09L35.7206 107.149L34.7248 105.967C32.3004 103.09 30.2912 99.8446 28.7531 96.3214L28.1386 94.9143ZM713.312 93.6817L712.769 95.0918C711.401 98.6459 709.569 101.934 707.323 104.864L706.396 106.076L708.918 107.857L709.846 106.646C712.265 103.489 714.237 99.9523 715.706 96.1342L716.249 94.7241L713.312 93.6817ZM1019.16 92.449L1016.17 93.4597L1016.71 94.8706C1018.16 98.6919 1020.11 102.237 1022.53 105.408L1023.45 106.625L1026.03 104.875L1025.1 103.658C1022.86 100.714 1021.04 97.4181 1019.7 93.8601L1019.16 92.449ZM224.588 90.6L221.711 91.4413L222.138 92.8555C223.303 96.7064 224.936 100.296 226.992 103.525L227.788 104.775L230.333 103.21L229.536 101.959C227.625 98.9562 226.103 95.6102 225.016 92.0143L224.588 90.6ZM516.664 87.5183L516.272 89.0588C515.272 92.9982 513.817 96.6779 511.948 99.996L511.166 101.384L513.982 102.927L514.764 101.538C516.769 97.9777 518.328 94.0385 519.397 89.8303L519.788 88.2901L516.664 87.5183ZM422.043 85.053L418.787 85.6451L419.099 87.1907C419.953 91.4249 421.296 95.4106 423.087 99.0366L423.792 100.461L426.793 99.1246L426.089 97.7C424.414 94.3109 423.158 90.5758 422.355 86.5983L422.043 85.053ZM319.015 83.2041L318.796 84.754C318.226 88.7687 317.25 92.554 315.894 96.0047L315.322 97.4607L318.216 98.6122L318.789 97.156C320.234 93.4774 321.273 89.4537 321.877 85.1962L322.097 83.6461L319.015 83.2041ZM620.591 80.1224L617.711 80.4067L617.842 81.9633C618.204 86.243 618.95 90.307 620.057 94.0425L620.499 95.5306L623.254 94.5765L622.812 93.0882C621.768 89.5699 621.065 85.7313 620.723 81.679L620.591 80.1224ZM121.223 77.0408L121.131 78.6022C120.891 82.68 120.268 86.5546 119.28 90.1183L118.861 91.6276L121.936 92.449L122.355 90.94C123.401 87.1674 124.059 83.0768 124.312 78.7827L124.404 77.2211L121.223 77.0408ZM914.451 75.1918L914.416 76.7592C914.324 80.865 913.865 84.7787 913.053 88.3919L912.709 89.9227L915.82 90.6L916.164 89.0692C917.021 85.2568 917.504 81.1381 917.601 76.8284L917.636 75.2612L914.451 75.1918ZM818.686 73.9593L815.403 74.0022L815.426 75.5708C815.487 79.8848 815.943 84.01 816.78 87.832L817.117 89.3674L820.33 88.7247L819.994 87.1892C819.2 83.5641 818.768 79.6407 818.709 75.5277L818.686 73.9593ZM-77.2339 72.1101L-77.2555 73.6795C-77.2608 74.0775 -77.2637 74.4833 -77.2637 74.8863C-77.2637 78.5834 -77.508 82.1375 -77.9898 85.4497L-78.2148 86.9976L-75.538 87.5183L-75.3129 85.9705C-74.8061 82.4867 -74.5491 78.7573 -74.5491 74.8863C-74.5491 74.5 -74.5466 74.1107 -74.5412 73.7295L-74.5197 72.1602L-77.2339 72.1101ZM24.9117 72.1101L22.1709 72.1723L22.1982 73.741C22.2065 74.214 22.2105 74.6979 22.2105 75.1786C22.2105 78.9419 22.4559 82.5727 22.94 85.9697L23.1606 87.5183L25.8661 87.0132L25.6454 85.4646C25.1853 82.2339 24.9519 78.773 24.9519 75.1786C24.9519 74.6771 24.9475 74.1726 24.939 73.679L24.9117 72.1101ZM717.043 69.6449L716.969 71.2101C716.911 72.4317 716.882 73.6898 716.882 74.9497C716.882 77.7681 716.73 80.5135 716.429 83.109L716.249 84.6642L719.131 85.053L719.311 83.4978C719.627 80.774 719.787 77.8978 719.787 74.9496C719.787 73.7427 719.815 72.5386 719.87 71.3698L719.944 69.8048L717.043 69.6449ZM1016.02 69.6449L1013.09 69.8334L1013.18 71.3973C1013.26 72.7554 1013.3 74.1619 1013.3 75.5777C1013.3 78.301 1013.44 80.9653 1013.71 83.4966L1013.88 85.053L1016.79 84.6922L1016.62 83.1359C1016.36 80.7237 1016.23 78.1807 1016.23 75.5775C1016.23 74.0991 1016.19 72.6293 1016.11 71.2089L1016.02 69.6449ZM222.812 66.5632L219.863 66.8706L220.009 68.4296C220.206 70.5458 220.306 72.7644 220.306 75.0237C220.306 76.8537 220.369 78.6656 220.493 80.4096L220.604 81.9714L223.558 81.7362L223.447 80.1742C223.329 78.5083 223.269 76.7753 223.269 75.0237C223.269 72.6622 223.164 70.3403 222.957 68.1223L222.812 66.5632ZM518.792 64.7141L518.6 66.2679C518.242 69.1711 518.06 72.2467 518.06 75.4084C518.06 76.4217 518.041 77.4357 518.002 78.4224L517.941 79.9889L520.809 80.1223L520.87 78.5558C520.91 77.5248 520.931 76.4658 520.931 75.4086C520.931 72.3863 521.104 69.4518 521.445 66.6869L521.637 65.1329L518.792 64.7141ZM420.333 61.6326L416.939 62.2201L417.262 63.7639C418.024 67.4076 418.411 71.3461 418.412 75.4693L418.412 77.0408L421.866 77.0401L421.866 75.4685C421.865 71.149 421.457 67.0132 420.655 63.1766L420.333 61.6326ZM321.609 58.5511L321.253 60.073C320.365 63.8702 319.839 67.9777 319.688 72.2816L319.633 73.8462L322.666 73.9592L322.721 72.3946C322.865 68.2998 323.363 64.4011 324.204 60.8073L324.56 59.2854L321.609 58.5511ZM617.467 56.0857L614.632 57.0045L615.068 58.4984C616.097 62.0288 616.78 65.8771 617.097 69.9363L617.219 71.4939L620.175 71.2375L620.053 69.6799C619.719 65.3963 618.995 61.3253 617.902 57.5797L617.467 56.0857ZM124.989 54.2367L124.432 55.7088C123.028 59.4152 122.048 63.4587 121.518 67.7271L121.325 69.2803L124.607 69.6449L124.8 68.0918C125.3 64.0589 126.223 60.2477 127.542 56.7641L128.1 55.2922L124.989 54.2367ZM918.572 51.1551L917.991 52.5999C916.519 56.2592 915.444 60.2693 914.794 64.519L914.557 66.0672L917.513 66.5633L917.75 65.0152C918.362 61.0129 919.372 57.2456 920.75 53.8175L921.331 52.3723L918.572 51.1551ZM813.156 51.1551L810.476 52.413L811.062 53.8513C812.454 57.2654 813.482 61.0218 814.12 65.0162L814.366 66.5632L817.25 66.0335L817.003 64.4865C816.326 60.2416 815.229 56.2402 813.742 52.5932L813.156 51.1551ZM-71.2173 49.3062L-71.9295 50.7183C-73.7459 54.3203 -75.1275 58.2894 -76.0357 62.515L-76.3672 64.0585L-73.2452 64.7144L-72.9135 63.1709C-72.0612 59.2058 -70.7693 55.4898 -69.0729 52.1265L-68.361 50.7143L-71.2173 49.3062ZM18.8313 48.0735L16.0126 49.5014L16.7268 50.9099C18.4292 54.2666 19.7305 57.9772 20.5947 61.9387L20.9312 63.4816L24.0188 62.809L23.6823 61.266C22.7611 57.0426 21.3693 53.0777 19.5457 49.4819L18.8313 48.0735ZM723.977 46.2245L723.191 47.6055C721.172 51.1525 719.593 55.0821 718.498 59.2845L718.097 60.8241L721.153 61.6326L721.554 60.093C722.579 56.1617 724.052 52.4932 725.933 49.1893L726.719 47.8085L723.977 46.2245ZM1008.98 46.2245L1006.32 47.7228L1007.11 48.9856C1009 52.0112 1010.5 55.3753 1011.54 58.9844L1011.96 60.4L1014.94 59.6195L1014.53 58.2042C1013.41 54.3433 1011.81 50.7377 1009.77 47.4874L1008.98 46.2245ZM213.957 44.3755L211.241 46.0436L212.161 47.2752C214.376 50.2442 216.161 53.5628 217.466 57.1387L217.981 58.551L221.095 57.6158L220.58 56.2035C219.18 52.3679 217.261 48.8027 214.877 45.6075L213.957 44.3755ZM528.417 42.5265L527.486 43.7298C525.056 46.873 523.066 50.3991 521.573 54.2104L521.02 55.6199L523.898 56.702L524.451 55.2924C525.84 51.7464 527.688 48.4696 529.944 45.5529L530.874 44.3494L528.417 42.5265ZM408.737 39.4449L406.47 41.4963L407.471 42.6575C409.919 45.4986 411.968 48.7144 413.559 52.2157L414.197 53.6204L416.939 52.3124L416.301 50.9075C414.587 47.1363 412.379 43.6705 409.738 40.6063L408.737 39.4449ZM333.395 38.2122L332.267 39.2883C329.271 42.1498 326.725 45.4112 324.703 48.9821L323.944 50.3208L326.745 51.7714L327.504 50.4324C329.38 47.1209 331.74 44.0965 334.518 41.4434L335.646 40.3672L333.395 38.2122ZM603.143 35.747L601.083 38.1421L602.276 39.176C605.247 41.7494 607.81 44.7095 609.896 47.9743L610.747 49.3062L613.4 47.598L612.55 46.2664C610.3 42.745 607.536 39.5537 604.336 36.7807L603.143 35.747ZM139.782 34.5143L138.586 35.4265C135.359 37.8868 132.543 40.7393 130.216 43.9046L129.331 45.1093L131.795 46.8408L132.681 45.636C134.839 42.7002 137.453 40.0525 140.452 37.7659L141.648 36.854L139.782 34.5143ZM934.894 32.6653L933.575 33.5458C929.998 35.9332 926.842 38.7261 924.194 41.8474L923.179 43.0434L925.67 44.9918L926.685 43.7959C929.143 40.898 932.079 38.3016 935.409 36.079L936.728 35.1984L934.894 32.6653ZM796.863 32.6652L795.079 35.2474L796.399 36.1203C799.736 38.3268 802.685 40.9099 805.164 43.7982L806.188 44.9917L808.628 42.9874L807.604 41.7941C804.935 38.6842 801.765 35.9063 798.183 33.5379L796.863 32.6652ZM-53.9627 31.4326L-55.2846 32.2346C-58.885 34.419 -62.0998 37.0039 -64.8396 39.9174L-65.8972 41.0419L-63.6336 43.1428L-62.5763 42.0186C-60.0276 39.3086 -57.0313 36.9004 -53.6701 34.8615L-52.3482 34.0594L-53.9627 31.4326ZM1.59399 31.4326L0.00012207 34.0826L1.32252 34.8811C4.68673 36.9125 7.68886 39.3145 10.2459 42.0196L11.3076 43.1428L13.5491 41.0153L12.4875 39.8923C9.73897 36.9844 6.51877 34.4068 2.91605 32.2311L1.59399 31.4326ZM741.29 30.8164L739.966 31.5872C736.349 33.6931 733.088 36.213 730.274 39.0771L729.182 40.1887L731.259 42.5266L732.352 41.4149C734.975 38.745 738.021 36.3923 741.407 34.4212L742.731 33.6503L741.29 30.8164ZM990.476 30.8163L989.076 33.4L990.401 34.0825C993.792 35.8304 996.85 37.9228 999.491 40.3023L1000.59 41.2939L1002.63 39.1475L1001.52 38.1558C998.693 35.6048 995.422 33.3651 991.801 31.499L990.476 30.8163ZM195.356 28.9673L193.997 31.7527L195.445 32.4065C199.166 34.0877 202.553 36.1268 205.511 38.4674L206.746 39.4449L208.778 37.0686L207.543 36.0911C204.38 33.5878 200.767 31.411 196.804 29.6213L195.356 28.9673ZM548.127 28.9673L546.677 29.5577C542.705 31.175 539.057 33.1687 535.832 35.483L534.569 36.3896L536.447 38.8286L537.71 37.9222C540.732 35.7529 544.16 33.8809 547.9 32.3583L549.35 31.7677L548.127 28.9673ZM387.808 27.1183L386.762 30.1933L388.216 30.7464C391.976 32.1768 395.459 33.9764 398.569 36.0946L399.868 36.9795L401.542 34.2327L400.243 33.3475C396.937 31.0954 393.243 29.1857 389.263 27.6717L387.808 27.1183ZM355.021 27.1184L353.502 27.5726C349.353 28.8137 345.467 30.4178 341.954 32.3407L340.572 33.0972L342.15 35.7469L343.532 34.9906C346.846 33.1767 350.519 31.6611 354.45 30.4855L355.969 30.0312L355.021 27.1184ZM580.933 25.8857L580.144 28.8622L581.668 29.2475C585.61 30.2439 589.332 31.5799 592.734 33.2175L594.146 33.8979L595.54 31.1403L594.127 30.4602C590.533 28.7295 586.607 27.3201 582.458 26.2712L580.933 25.8857ZM162.521 24.653L160.991 25.0094C156.847 25.9756 152.893 27.323 149.24 29.0141L147.808 29.6772L149.079 32.6653L150.511 32.0022C153.976 30.3982 157.732 29.1189 161.675 28.1997L163.204 27.8432L162.521 24.653ZM957.718 25.2694L956.183 25.5392C952.05 26.2657 948.066 27.3406 944.34 28.7334L942.887 29.2769L944.026 32.049L945.479 31.5056C949.02 30.1816 952.812 29.1594 956.748 28.4674L958.283 28.1974L957.718 25.2694ZM774.677 25.2695L774.14 28.2582L775.676 28.5195C779.609 29.1881 783.41 30.1944 786.971 31.5102L788.429 32.0491L789.536 29.2125L788.078 28.6738C784.332 27.2899 780.34 26.2323 776.213 25.5306L774.677 25.2695ZM-30.6103 24.0368L-32.152 24.2631C-36.2556 24.8655 -40.2751 25.8568 -44.0994 27.2091L-45.5742 27.7307L-44.5772 30.8164L-43.1023 30.2948C-39.4612 29.0069 -35.6313 28.0629 -31.7192 27.4885L-30.1776 27.2622L-30.6103 24.0368ZM-21.7517 24.0367L-22.171 27.2949L-20.6286 27.5164C-16.7205 28.0774 -12.8869 29.0129 -9.23437 30.2971L-7.75748 30.8163L-6.77438 27.6962L-8.25126 27.177C-12.0867 25.8285 -16.1102 24.8464 -20.2093 24.258L-21.7517 24.0367ZM764.593 24.0368L763.045 24.1811C760.261 24.4407 755.912 25.0334 750.999 26.383L749.506 26.7931L750.384 29.5837L751.876 29.1738C756.559 27.8876 760.702 27.3228 763.354 27.0756L764.902 26.9311L764.593 24.0368ZM967.181 24.0367L966.905 27.0029L968.456 27.1346C971.09 27.359 975.224 27.8954 979.956 29.1778L981.453 29.5837L982.302 26.7184L980.804 26.3128C975.84 24.9672 971.499 24.404 968.732 24.1686L967.181 24.0367ZM370.365 24.0367C370.288 24.0367 368.457 24.0403 365.511 24.3588L363.976 24.5248L364.335 27.3585L365.87 27.1924C368.62 26.8953 370.349 26.8898 370.366 26.8897C370.392 26.8898 373.189 26.9003 377.361 27.5112L378.888 27.7346L379.372 24.9167L377.846 24.6934C373.412 24.0442 370.487 24.0367 370.365 24.0367ZM568.878 24.0367C568.697 24.0367 564.381 24.0523 558.261 25.4L556.74 25.7346L557.37 28.9673L558.89 28.6326C564.676 27.3586 568.837 27.338 568.879 27.3378C568.882 27.3378 569.434 27.3394 570.4 27.4018L571.95 27.5015L572.137 24.2064L570.588 24.1065C569.518 24.0376 568.904 24.0367 568.878 24.0367ZM170.701 24.0367L170.594 26.9828L172.153 27.0335C173.781 27.0863 178.17 27.3465 183.74 28.6206L185.256 28.9673L185.99 26.1019L184.474 25.7552C178.625 24.4174 173.984 24.1429 172.26 24.0872L170.701 24.0367Z" fill="url(#paint0_linear_1863_19105)"/>
</g>
<defs>
<linearGradient id="paint0_linear_1863_19105" x1="-122.557" y1="-0.782963" x2="1062.36" y2="-0.782963" gradientUnits="userSpaceOnUse">
<stop stop-color="#F5E6FE"/>
<stop offset="0.10539" stop-color="#F5E6FE"/>
<stop offset="0.327298" stop-color="#FFCCEA"/>
<stop offset="0.490908" stop-color="#FFF9DD"/>
<stop offset="0.652696" stop-color="#E6ECFF"/>
<stop offset="1" stop-color="#E6ECFF"/>
</linearGradient>
</defs>
</svg>
