<svg width="171" height="42" viewBox="0 0 171 42" fill="none" xmlns="http://www.w3.org/2000/svg">
<path fill-rule="evenodd" clip-rule="evenodd" d="M95.1992 23.3404C95.208 18.4807 98.8833 14.8999 103.813 14.9433C108.817 14.9909 112.374 18.5588 112.343 23.4098C112.313 28.2608 108.624 31.8026 103.712 31.7679C98.8003 31.7332 95.1905 28.2001 95.1992 23.3404ZM99.08 23.3404C99.0756 26.1712 100.985 28.1784 103.725 28.1784C106.527 28.2001 108.454 26.2579 108.463 23.3837C108.471 20.5096 106.557 18.5111 103.8 18.4981C101.042 18.4851 99.0843 20.5096 99.08 23.3404Z" fill="#0D1D4A"/>
<path d="M148.188 23.5615C150.81 21.1469 151.448 18.1209 150.224 14.8219C149.071 11.7006 146.619 10.1833 143.333 10.0533C138.639 9.8582 135.121 13.0012 135.056 17.423C135.029 19.3651 135.628 21.0385 137.179 22.2913C137.635 22.7081 138.279 22.8545 138.872 22.6763C139.465 22.498 139.918 22.0217 140.064 21.4243C140.247 20.6873 139.906 20.0978 139.517 19.5125C138.581 18.2582 138.548 16.5535 139.434 15.2641C140.44 13.7121 142.035 13.4303 143.748 13.6991C145.243 13.8658 146.458 14.9715 146.754 16.4346C147.278 18.1361 146.75 19.9839 145.404 21.1599C144.932 21.5934 144.421 21.9922 143.905 22.3824C141.397 24.2985 138.885 26.2132 136.371 28.1264C135.624 28.6987 135.392 29.3403 135.624 30.0902C135.869 30.8981 136.605 31.4623 137.455 31.4948C137.59 31.4948 137.721 31.4948 137.857 31.4948H148.503C148.702 31.5078 148.902 31.5078 149.101 31.4948C150.045 31.4202 150.771 30.6387 150.771 29.7001C150.79 29.2401 150.623 28.7915 150.309 28.4532C149.994 28.1149 149.556 27.9147 149.093 27.8967C148.315 27.836 147.532 27.862 146.75 27.8576H142.817L142.765 27.7189C143.031 27.5238 143.298 27.3331 143.56 27.1337C145.089 25.9502 146.754 24.8794 148.188 23.5615Z" fill="#0D1D4A"/>
<path fill-rule="evenodd" clip-rule="evenodd" d="M52.1839 15.6759C54.5343 14.6859 57.1867 14.6718 59.5477 15.6369C62.4189 16.8204 63.9747 19.0053 64.1014 22.0963C64.1662 23.8131 64.1526 25.5321 64.139 27.2503C64.1333 27.9659 64.1276 28.6815 64.1276 29.3966C64.1232 30.5801 63.5551 31.3431 62.4932 31.4948C61.4312 31.6465 60.6883 31.109 60.3081 29.9125C60.2745 29.8296 60.2335 29.7498 60.1857 29.6741C57.6991 32.856 52.1752 32.1537 49.3651 29.0888C45.8035 25.2132 46.8173 17.7655 52.1839 15.6759ZM55.8811 28.1784C58.1842 28.1784 59.6963 26.9689 60.1333 24.7103C60.2021 24.3394 60.2299 23.9726 60.2575 23.6098C60.2702 23.4426 60.2828 23.2762 60.2993 23.1107C60.2644 20.2408 59.15 18.8362 56.6328 18.5285C54.015 18.2033 51.8518 19.5255 51.3361 21.8925C51.1548 22.7987 51.1415 23.7301 51.2968 24.641C51.6595 26.8129 53.5125 28.1784 55.8811 28.1784Z" fill="#0D1D4A"/>
<path d="M167.784 22.8592C166.954 22.8592 166.124 22.9936 165.254 23.0673V21.8274C165.254 20.2624 164.747 19.6165 163.506 19.6165C162.265 19.6165 161.736 20.2668 161.736 21.7841V23.154L158.087 22.7681C158.205 22.573 158.31 22.3866 158.428 22.2046C160.351 19.2798 162.273 16.3536 164.196 13.4259C164.376 13.1731 164.533 12.9047 164.664 12.6239C164.89 12.1329 164.887 11.5685 164.658 11.0791C164.429 10.5897 163.995 10.2244 163.471 10.0792C162.597 9.7931 161.688 10.1529 161.093 11.111C158.559 15.1947 156.024 19.2827 153.524 23.3881C152.532 25.0094 153.371 26.4226 155.272 26.453C156.859 26.453 158.441 26.453 160.027 26.453C161.207 26.453 161.57 26.8215 161.609 28.005C161.631 28.6682 161.609 29.3358 161.644 29.9991C161.732 31.0439 162.466 31.6335 163.558 31.6075C164.035 31.6356 164.502 31.4639 164.845 31.1342C165.188 30.8045 165.376 30.3471 165.363 29.8734C165.385 29.2535 165.363 28.6336 165.385 28.0136C165.451 26.7825 165.8 26.4617 167.033 26.4443H167.771C169.047 26.4183 169.777 25.7594 169.773 24.6322C169.768 23.5051 169.052 22.8418 167.784 22.8592Z" fill="#0D1D4A"/>
<path fill-rule="evenodd" clip-rule="evenodd" d="M115.456 22.274C115.626 17.8348 119.306 14.7395 123.829 14.9519C126.595 15.0863 128.968 15.9924 130.668 18.264C133.535 22.1092 132.569 29.3402 127.023 31.2997C125.278 31.9831 123.332 31.9645 121.6 31.2477C120.783 30.8172 120.004 30.3199 119.271 29.7607V33.7924C119.278 34.1678 119.256 34.5431 119.205 34.9152C119.091 35.8884 118.224 36.5995 117.239 36.5279C116.75 36.5303 116.281 36.337 115.938 35.9918C115.595 35.6466 115.407 35.1787 115.416 34.6941C115.411 33.7559 115.403 32.8174 115.394 31.8789C115.364 28.6761 115.334 25.4724 115.456 22.274ZM123.873 28.2348C125.97 28.2174 127.574 27.06 128.094 25.0441C128.296 24.2264 128.355 23.3803 128.269 22.5428C128.046 20.1454 126.119 18.5674 123.706 18.5111C121.294 18.4547 119.712 19.8506 119.336 22.3563C119.285 22.6096 119.28 22.8689 119.274 23.1274C119.271 23.2451 119.269 23.3625 119.262 23.4791H119.201C119.261 24.0905 119.362 24.6973 119.502 25.2956C120.062 27.138 121.775 28.2521 123.873 28.2348Z" fill="#0D1D4A"/>
<path d="M92.3455 14.9389H82.6699C81.6329 14.9878 80.8174 15.836 80.8174 16.8659C80.8174 17.8958 81.6329 18.7441 82.6699 18.7929H85.7029V29.8214C85.7521 30.8502 86.6072 31.6591 87.6454 31.6591C88.6836 31.6591 89.5387 30.8502 89.5879 29.8214V18.7929H92.3455C93.0615 18.8266 93.7381 18.4668 94.1063 17.8568C94.4745 17.2467 94.4745 16.4851 94.1063 15.8751C93.7381 15.265 93.0615 14.9052 92.3455 14.9389Z" fill="#0D1D4A"/>
<path fill-rule="evenodd" clip-rule="evenodd" d="M79.1701 24.151C78.2254 23.3644 77.0599 22.8846 75.8312 22.7768H75.8007L75.8312 22.7465C76.8802 22.6047 77.8613 22.1513 78.6456 21.4459C79.3198 20.8227 79.6962 19.9453 79.6814 19.0313C79.6814 16.3001 77.1583 14.9346 72.1122 14.9346C71.0546 14.9346 69.9096 14.9866 68.6773 15.0906C68.1731 15.1178 67.7009 15.3442 67.3662 15.7192C67.0337 16.0899 66.8542 16.5713 66.8636 17.0675V29.6393C66.8581 30.133 67.0389 30.6108 67.3706 30.9789C67.6875 31.3577 68.1471 31.5912 68.6423 31.6248C69.9796 31.7332 71.2163 31.7852 72.3613 31.7852C77.7075 31.7852 80.3791 30.135 80.3762 26.8345C80.3949 25.8069 79.9531 24.8241 79.1701 24.151ZM71.0634 18.0168C71.0524 17.8621 71.1624 17.7247 71.3168 17.7004C71.8282 17.657 72.1909 17.6354 72.4618 17.6354C74.6469 17.6354 75.7395 18.2668 75.7395 19.5298C75.7477 20.1715 75.398 20.7651 74.8305 21.0731C74.0795 21.4896 73.2249 21.6865 72.3657 21.641H71.3518C71.1595 21.641 71.0634 21.5586 71.0634 21.3896V18.0168ZM71.3387 28.9847C71.7388 29.0328 72.1419 29.053 72.5449 29.0454C75.0767 29.0454 76.3382 28.2073 76.3294 26.531C76.3294 24.9964 75.0359 24.2291 72.4487 24.2291H71.3387C71.1464 24.2291 71.0503 24.3114 71.0503 24.4805V28.6682C71.0503 28.8373 71.1464 28.9414 71.3387 28.9847Z" fill="#0D1D4A"/>
<path fill-rule="evenodd" clip-rule="evenodd" d="M10.2962 26.292C9.68747 24.9678 9.37299 23.5292 9.37407 22.0739V21.5667C9.36936 17.58 11.7152 13.9589 15.3727 12.3068C19.0165 10.661 23.2915 11.2722 26.3179 13.8683L26.326 13.8935L26.5008 14.0539L26.6406 14.1839C27.074 14.5907 27.4704 15.0346 27.825 15.5105L27.9517 15.6839L28.1746 16.009L28.3669 16.3125C28.384 16.3368 28.3984 16.3625 28.4132 16.3888L28.4132 16.3888L28.4132 16.3889C28.4248 16.4094 28.4365 16.4303 28.4499 16.4512C28.5941 16.694 28.7296 16.9541 28.8607 17.2272L28.9044 17.3182C29.0399 17.6087 29.1622 17.9165 29.2759 18.2416V18.2893C29.2893 18.3274 29.3036 18.3646 29.318 18.4021L29.318 18.4022C29.3363 18.4501 29.3549 18.4984 29.372 18.5494C29.3909 18.6056 29.4014 18.6552 29.4119 18.7043C29.4184 18.7347 29.4248 18.765 29.4332 18.7965C29.5162 19.0913 29.5818 19.3774 29.6342 19.6635C29.6342 19.7383 29.6503 19.8113 29.6664 19.8847C29.6755 19.9263 29.6847 19.968 29.691 20.0104C29.6971 20.0509 29.7021 20.0825 29.7064 20.1099L29.7064 20.1099C29.7146 20.1616 29.7203 20.1978 29.726 20.2488C29.7764 20.6587 29.8012 21.0713 29.8003 21.4843V25.516C29.8205 25.5364 29.8409 25.5567 29.8615 25.5768V32.1834H19.6047C18.6502 32.184 17.7002 32.0542 16.7815 31.7976C13.9199 30.979 11.5561 28.9709 10.3005 26.292L10.2651 26.3038L10.2962 26.292ZM16.5606 31.8558C16.6052 31.8413 16.6512 31.8276 16.6985 31.8149L16.7815 31.7976C16.7079 31.8172 16.6343 31.8366 16.5606 31.8558ZM3.86083 33.1551C3.80124 33.1447 3.75195 33.1385 3.71468 33.1371H3.6098C2.5752 31.7225 1.76055 30.1618 1.19309 28.5072C1.19483 28.4928 1.19483 28.4782 1.19309 28.4638C0.402202 26.3015 -0.0015609 24.0187 3.11039e-05 21.7184V20.7343C-0.0144221 12.6029 5.00931 5.2983 12.6469 2.34549C20.2845 -0.607317 28.9663 1.39856 34.5026 7.39514L34.485 7.4001L34.5245 7.44283L34.6599 7.58589C34.705 7.63321 34.7468 7.68212 34.7884 7.7307C34.8153 7.76222 34.8422 7.79361 34.8697 7.82432C36.7066 9.94346 38.0775 12.4196 38.8946 15.0943C39.391 16.7495 39.6672 18.4619 39.7162 20.1881V20.2314L39.7163 20.2329C39.7206 20.4231 39.7248 20.6047 39.6507 20.782V22.0175L39.6499 22.0183C39.6749 22.0237 39.6999 22.0292 39.725 22.0349V35.5908C39.7238 37.1537 40.3492 38.6528 41.4632 39.7579C42.5752 40.861 44.083 41.4811 45.6553 41.4822H19.845C13.388 41.4863 7.33224 38.3752 3.6098 33.1414C3.69347 33.1462 3.77715 33.1508 3.86083 33.1551Z" fill="url(#paint0_linear_1858_19496)"/>
<mask id="mask0_1858_19496" style="mask-type:luminance" maskUnits="userSpaceOnUse" x="0" y="1" width="46" height="41">
<path fill-rule="evenodd" clip-rule="evenodd" d="M10.2962 26.292C9.68747 24.9678 9.37299 23.5292 9.37407 22.0739V21.5667C9.36936 17.58 11.7152 13.9589 15.3727 12.3068C19.0165 10.661 23.2915 11.2722 26.3179 13.8683L26.326 13.8935L26.5008 14.0539L26.6406 14.1839C27.074 14.5907 27.4704 15.0346 27.825 15.5105L27.9517 15.6839L28.1746 16.009L28.3669 16.3125C28.384 16.3368 28.3984 16.3625 28.4132 16.3888L28.4132 16.3888L28.4132 16.3889C28.4248 16.4094 28.4365 16.4303 28.4499 16.4512C28.5941 16.694 28.7296 16.9541 28.8607 17.2272L28.9044 17.3182C29.0399 17.6087 29.1622 17.9165 29.2759 18.2416V18.2893C29.2893 18.3274 29.3036 18.3646 29.318 18.4021L29.318 18.4022C29.3363 18.4501 29.3549 18.4984 29.372 18.5494C29.3909 18.6056 29.4014 18.6552 29.4119 18.7043C29.4184 18.7347 29.4248 18.765 29.4332 18.7965C29.5162 19.0913 29.5818 19.3774 29.6342 19.6635C29.6342 19.7383 29.6503 19.8113 29.6664 19.8847C29.6755 19.9263 29.6847 19.968 29.691 20.0104C29.6971 20.0509 29.7021 20.0825 29.7064 20.1099L29.7064 20.1099C29.7146 20.1616 29.7203 20.1978 29.726 20.2488C29.7764 20.6587 29.8012 21.0713 29.8003 21.4843V25.516C29.8205 25.5364 29.8409 25.5567 29.8615 25.5768V32.1834H19.6047C18.6502 32.184 17.7002 32.0542 16.7815 31.7976C13.9199 30.979 11.5561 28.9709 10.3005 26.292L10.2651 26.3038L10.2962 26.292ZM16.5606 31.8558C16.6052 31.8413 16.6512 31.8276 16.6985 31.8149L16.7815 31.7976C16.7079 31.8172 16.6343 31.8366 16.5606 31.8558ZM3.86083 33.1551C3.80124 33.1447 3.75195 33.1385 3.71468 33.1371H3.6098C2.5752 31.7225 1.76055 30.1618 1.19309 28.5072C1.19483 28.4928 1.19483 28.4782 1.19309 28.4638C0.402202 26.3015 -0.0015609 24.0187 3.11039e-05 21.7184V20.7343C-0.0144221 12.6029 5.00931 5.2983 12.6469 2.34549C20.2845 -0.607317 28.9663 1.39856 34.5026 7.39514L34.485 7.4001L34.5245 7.44283L34.6599 7.58589C34.705 7.63321 34.7468 7.68212 34.7884 7.7307C34.8153 7.76222 34.8422 7.79361 34.8697 7.82432C36.7066 9.94346 38.0775 12.4196 38.8946 15.0943C39.391 16.7495 39.6672 18.4619 39.7162 20.1881V20.2314L39.7163 20.2329C39.7206 20.4231 39.7248 20.6047 39.6507 20.782V22.0175L39.6499 22.0183C39.6749 22.0237 39.6999 22.0292 39.725 22.0349V35.5908C39.7238 37.1537 40.3492 38.6528 41.4632 39.7579C42.5752 40.861 44.083 41.4811 45.6553 41.4822H19.845C13.388 41.4863 7.33224 38.3752 3.6098 33.1414C3.69347 33.1462 3.77715 33.1508 3.86083 33.1551Z" fill="white"/>
</mask>
<g mask="url(#mask0_1858_19496)">
<path d="M41.1152 22.1661C37.8419 21.4248 33.9969 23.2672 30.2517 25.6645C30.2517 25.6645 18.0904 32.1854 17.1717 31.9288C12.8819 33.0729 8.43478 33.5266 4 33.2727C7.72244 38.5064 13.7782 45.6175 20.2352 45.6135L46.0542 41.6135C44.4787 41.6146 43.9674 40.9943 42.8534 39.8892C41.7394 38.7841 41.114 37.2849 41.1152 35.722V22.1661Z" fill="url(#paint1_linear_1858_19496)"/>
<path d="M10.2962 26.292C9.68747 24.9678 9.37299 23.5292 9.37407 22.0739V21.5667C9.36936 17.58 11.7152 13.9589 15.3727 12.3068C19.0303 10.6547 23.3239 11.2769 26.3522 13.8978C28.0668 10.7228 31.0087 8.37561 34.5026 7.39514C28.9663 1.39856 20.2845 -0.607317 12.6469 2.34549C5.00931 5.2983 -0.0144221 12.6029 3.11039e-05 20.7343V21.7184C-0.0015609 24.0187 0.402202 26.3015 1.19309 28.4638C2.68001 28.3086 4.15565 28.061 5.61134 27.7225C7.20429 27.3532 8.76963 26.8752 10.2962 26.292Z" fill="url(#paint2_linear_1858_19496)"/>
</g>
<defs>
<linearGradient id="paint0_linear_1858_19496" x1="99.1609" y1="51.2015" x2="66.5303" y2="-54.4455" gradientUnits="userSpaceOnUse">
<stop stop-color="#F85DB9"/>
<stop offset="0.17" stop-color="#EF5CBB"/>
<stop offset="0.45" stop-color="#D558C1"/>
<stop offset="0.81" stop-color="#AC52CB"/>
<stop offset="1" stop-color="#934ED1"/>
</linearGradient>
<linearGradient id="paint1_linear_1858_19496" x1="2.38013" y1="33.7465" x2="6.62217" y2="58.1218" gradientUnits="userSpaceOnUse">
<stop stop-color="#FECF00"/>
<stop offset="0.34" stop-color="#FDC607"/>
<stop offset="1" stop-color="#FAA81C"/>
</linearGradient>
<linearGradient id="paint2_linear_1858_19496" x1="-11.3718" y1="19.9968" x2="13.0458" y2="52.0774" gradientUnits="userSpaceOnUse">
<stop stop-color="#6435A5"/>
<stop offset="0.24" stop-color="#6D3AAE"/>
<stop offset="0.63" stop-color="#8747C6"/>
<stop offset="1" stop-color="#934ED1"/>
</linearGradient>
</defs>
</svg>
