<svg width="102" height="102" viewBox="0 0 102 102" fill="none" xmlns="http://www.w3.org/2000/svg">
<g id="Group 11" filter="url(#filter0_d_1861_18786)">
<g id="money (1)">
<path id="Path" d="M73.1875 86.5H28.8125C21.4596 86.5 15.5 80.5404 15.5 73.1875V28.8125C15.5 21.4596 21.4596 15.5 28.8125 15.5H73.1875C80.5404 15.5 86.5 21.4596 86.5 28.8125V73.1875C86.5 80.5404 80.5404 86.5 73.1875 86.5Z" fill="white"/>
</g>
<circle id="Oval" cx="51" cy="51" r="17.5" fill="#FFD304"/>
<path id="&#226;&#130;&#189;" fill-rule="evenodd" clip-rule="evenodd" d="M49.5441 56.6966V59.5H46.7469V56.6966H44.5V54.5997H46.7469V52.708H44.5V50.6111H46.7469V43.5456C47.1685 43.5456 47.952 43.5355 48.7802 43.5247C49.7085 43.5127 50.6928 43.5 51.2866 43.5C56.0326 43.5 57.5 45.5513 57.5 48.1724C57.5 50.9074 55.4594 52.708 51.6534 52.708H49.5441V54.5997H53.3042V56.6966H49.5441ZM49.5 50.5H51.5276C53.1866 50.5 54.5 49.9924 54.5 48.5508C54.5 47.0685 53.4631 46.5 51.5507 46.5C51.0146 46.5 50.3587 46.5176 49.6574 46.5364C49.6052 46.5378 49.5527 46.5392 49.5 46.5406V50.5Z" fill="white"/>
</g>
<defs>
<filter id="filter0_d_1861_18786" x="0.5" y="0.5" width="101" height="101" filterUnits="userSpaceOnUse" color-interpolation-filters="sRGB">
<feFlood flood-opacity="0" result="BackgroundImageFix"/>
<feColorMatrix in="SourceAlpha" type="matrix" values="0 0 0 0 0 0 0 0 0 0 0 0 0 0 0 0 0 0 127 0" result="hardAlpha"/>
<feOffset/>
<feGaussianBlur stdDeviation="7.5"/>
<feColorMatrix type="matrix" values="0 0 0 0 0.0509804 0 0 0 0 0.113725 0 0 0 0 0.290196 0 0 0 0.11 0"/>
<feBlend mode="normal" in2="BackgroundImageFix" result="effect1_dropShadow_1861_18786"/>
<feBlend mode="normal" in="SourceGraphic" in2="effect1_dropShadow_1861_18786" result="shape"/>
</filter>
</defs>
</svg>
