<svg width="100" height="28" viewBox="0 0 100 28" fill="none" xmlns="http://www.w3.org/2000/svg">
<path d="M13.0478 0.616333C15.0962 0.616333 17.0363 1.10513 18.7643 1.97448C19.0354 2.10645 19.3066 2.25193 19.5775 2.41113L18.3771 3.51441L16.5723 1.60044L13.5264 4.38702L11.717 2.36132L6.04365 7.60817L9.68154 11.7196L8.25198 13.0096L11.8347 17.128L10.4138 18.4138L15.5332 24.259L18.5721 21.3891L21.1993 24.4643C20.6774 24.881 20.1076 25.2736 19.4806 25.6363C17.5802 26.7474 15.3844 27.3836 13.0478 27.3836C5.86121 27.3836 0 21.3714 0 14C0 6.62826 5.86121 0.616333 13.0478 0.616333Z" fill="#006EB8"/>
<path d="M10.6697 13.1543L13.7726 10.2883L16.5666 13.4711L13.4635 16.3368L10.6697 13.1543Z" fill="#006EB8"/>
<path d="M12.8765 18.6539L15.9795 15.7882L18.7729 18.9707L15.67 21.8371L12.8765 18.6539Z" fill="#006EB8"/>
<path d="M8.44965 7.71937L11.552 4.85388L14.3455 8.03639L11.2432 10.9019L8.44965 7.71937Z" fill="#006EB8"/>
<path d="M14.1433 6.17737L16.4701 4.02808L18.5652 6.41525L16.2384 8.56454L14.1433 6.17737Z" fill="#006EB8"/>
<path d="M18.2784 16.0208L20.6049 13.8717L22.7003 16.2591L20.3735 18.4079L18.2784 16.0208Z" fill="#006EB8"/>
<path d="M20.3245 20.8419L22.6517 18.6931L24.7468 21.0798L22.4198 23.2286L20.3245 20.8419Z" fill="#006EB8"/>
<path d="M21.2626 9.79186L22.8138 8.35876L24.2111 9.9506L22.6597 11.3832L21.2626 9.79186Z" fill="#006EB8"/>
<path d="M19.2803 5.06385L20.8313 3.63123L22.2281 5.22283L20.6767 6.65546L19.2803 5.06385Z" fill="#006EB8"/>
<path d="M23.2454 14.5199L24.797 13.0873L26.1937 14.6789L24.6422 16.1113L23.2454 14.5199Z" fill="#006EB8"/>
<path d="M16.2886 10.9767L18.6149 8.82764L20.7103 11.2148L18.3837 13.3641L16.2886 10.9767Z" fill="#006EB8"/>
<path d="M62.0367 8.85925L61.9641 8.90906L61.8914 8.85925C61.3566 8.36022 60.7721 8.16051 60.043 8.16051C58.3647 8.16051 57.2698 9.35829 57.2698 11.2294C57.2698 11.2294 57.2698 19.7863 57.2698 19.9858C57.4405 19.9858 58.7779 19.9858 58.9481 19.9858C58.9481 19.7866 58.9481 11.2292 58.9481 11.2292C58.9481 9.98161 59.7755 9.88176 60.043 9.88176C60.2375 9.88176 60.5297 9.93157 60.7723 10.1313C61.0158 10.3808 61.137 10.7302 61.137 11.2292C61.137 11.2292 61.137 19.7861 61.137 19.9858C61.3076 19.9858 62.645 19.9858 62.8155 19.9858C62.8155 19.7866 62.8155 11.2292 62.8155 11.2292C62.8155 9.98161 63.6428 9.88176 63.9094 9.88176C64.1043 9.88176 64.3964 9.93157 64.6394 10.1313C64.8824 10.3808 65.0041 10.7302 65.0041 11.2292C65.0041 11.2292 65.0041 19.7861 65.0041 19.9858C65.1743 19.9858 66.5119 19.9858 66.6819 19.9858C66.6819 19.7866 66.6819 11.2292 66.6819 11.2292C66.6819 10.2563 66.391 9.45767 65.8555 8.90883C65.3689 8.43493 64.6877 8.16028 63.9094 8.16028C63.1558 8.16051 62.5481 8.38536 62.0367 8.85925Z" fill="#006EB8"/>
<path d="M74.2713 12.2023C73.7121 11.6034 72.7872 11.0797 71.5227 11.0797C70.3066 11.0797 69.382 11.6034 68.8233 12.2023C67.9479 13.1755 67.7772 14.5476 67.7772 15.6199C67.7772 16.6682 67.9479 18.0406 68.8233 19.0135C69.3824 19.6117 70.3066 20.1357 71.5227 20.1357C72.7872 20.1357 73.7121 19.6117 74.2713 19.0135C75.1465 18.0406 75.3166 16.6682 75.3166 15.6199C75.3169 14.5476 75.1467 13.1755 74.2713 12.2023ZM73.6146 15.9944C73.6146 16.8174 73.6146 17.7408 73.006 18.4146C72.7625 18.6637 72.3012 18.9884 71.5224 18.9884C70.7924 18.9884 70.3307 18.6637 70.0877 18.4146C69.4791 17.7406 69.4791 16.8174 69.4791 15.9944V15.2212C69.4791 14.3979 69.4791 13.4748 70.0877 12.8263C70.3307 12.5519 70.7924 12.227 71.5224 12.227C72.3012 12.227 72.7625 12.5519 73.006 12.8263C73.6146 13.4748 73.6146 14.3979 73.6146 15.2212V15.9944Z" fill="#006EB8"/>
<path d="M76.7029 11.2295L78.1141 11.2544V12.0276C78.5273 11.7283 78.8926 11.5037 79.3063 11.354C79.8171 11.1294 80.1815 11.0796 80.6921 11.0796C81.422 11.0796 82.1756 11.2293 82.784 11.928C83.3674 12.6263 83.489 13.45 83.489 14.1483V19.9612H81.9321V14.0233C81.9321 12.6018 81.0576 12.2271 80.3276 12.2271C79.5974 12.2271 78.8441 12.552 78.2361 13.1253V19.9612H76.7029V12.5017V11.2295Z" fill="#006EB8"/>
<path d="M91.102 18.265C90.8097 18.4149 90.4936 18.5394 90.1049 18.6639C89.6425 18.8143 89.2776 18.8886 88.7909 18.8886C87.9889 18.8886 87.259 18.6144 86.8696 18.1651C86.5778 17.866 86.2617 17.2676 86.2617 16.2195V15.9949H91.515V15.5959C91.515 14.1987 91.4662 13.0505 90.6148 12.1276C90.0557 11.5041 89.2041 11.0802 88.1335 11.0802C86.9417 11.0802 86.0667 11.6039 85.5317 12.2275C84.656 13.2507 84.5582 14.5974 84.5582 15.4707C84.5582 16.4439 84.7048 17.8912 85.58 18.8892C86.1394 19.5626 87.1364 20.1361 88.5476 20.1361C89.18 20.1361 89.861 20.0612 90.5415 19.7868C90.9061 19.6369 91.32 19.4379 91.5873 19.2873L91.102 18.265ZM86.2621 14.6477C86.2621 13.6492 86.5782 13.0754 86.8221 12.8008C87.0643 12.5268 87.4537 12.227 88.1108 12.227C88.549 12.227 88.9858 12.3269 89.303 12.6516C89.8623 13.2004 89.8623 13.8735 89.8623 14.4729V14.8465H86.2626L86.2621 14.6477Z" fill="#006EB8"/>
<path d="M99.9308 11.2544L96.5988 21.5332C96.4771 21.9827 96.161 22.731 95.7959 23.1544C95.358 23.6539 94.7746 23.8783 94.1177 23.8783C93.6552 23.8783 93.2179 23.7782 92.7798 23.5292C92.5125 23.3539 92.2447 23.1798 92.0741 22.9801L92.8043 22.0318C92.9259 22.1573 93.0959 22.2823 93.2427 22.381C93.4855 22.5313 93.7775 22.6063 94.0446 22.6063C94.5071 22.6063 94.7989 22.3572 94.945 22.1573C95.115 21.9327 95.2851 21.409 95.4072 21.0845L95.6017 20.3857L92.0262 11.2549H93.704L95.8445 16.7184C96.0639 17.2416 96.2827 18.0412 96.3315 18.2653H96.4038C96.6716 17.2172 96.7939 16.8674 97.0127 16.2194L98.5446 11.2546L99.9308 11.2544Z" fill="#006EB8"/>
<path d="M34.4799 19.4621L34.5287 19.3874L34.6018 19.4621C35.1609 19.9362 35.7204 20.1608 36.4745 20.1608C38.1523 20.1608 39.2474 18.9375 39.2474 17.0917C39.2474 17.0917 39.2474 8.50941 39.2474 8.33484C39.077 8.33484 37.7148 8.33484 37.5446 8.33484C37.5446 8.50941 37.5446 17.0917 37.5446 17.0917C37.5446 18.3388 36.7175 18.4147 36.4745 18.4147C36.2555 18.4147 35.9637 18.3893 35.7445 18.1647C35.5012 17.9406 35.3798 17.5663 35.3798 17.0924C35.3798 17.0924 35.3798 8.50987 35.3798 8.3353C35.2097 8.3353 33.8475 8.3353 33.6771 8.3353C33.6771 8.50987 33.6771 17.0924 33.6771 17.0924C33.6771 18.3393 32.8504 18.4149 32.5829 18.4149C32.3882 18.4149 32.0962 18.3898 31.8774 18.1652C31.6339 17.941 31.5125 17.5667 31.5125 17.0926C31.5125 17.0926 31.5125 8.51034 31.5125 8.33577C31.3421 8.33577 29.9804 8.33577 29.81 8.33577C29.81 8.51034 29.81 17.0926 29.81 17.0926C29.81 18.0411 30.1018 18.8392 30.6371 19.3878C31.1234 19.8871 31.8289 20.1611 32.5829 20.1611C33.3369 20.1608 33.9448 19.9116 34.4799 19.4621Z" fill="#006EB8"/>
<path d="M47.0546 18.265C46.7876 18.3893 46.4712 18.5394 46.0818 18.6639C45.6201 18.8143 45.2545 18.8885 44.7687 18.8885C43.9659 18.8885 43.2359 18.6143 42.8463 18.1651C42.579 17.866 42.2629 17.2676 42.2629 16.2195V15.9949H47.4678V15.5959C47.4678 14.1987 47.4191 13.0505 46.5922 12.1276C46.0331 11.5289 45.1814 11.1049 44.087 11.1049C42.9441 11.1049 42.0684 11.6288 41.5333 12.2275C40.6332 13.2756 40.5605 14.6228 40.5605 15.4707C40.5605 16.4439 40.6824 17.8912 41.5581 18.8892C42.1417 19.5379 43.1145 20.1361 44.5252 20.1361C45.1576 20.1361 45.8141 20.0363 46.5193 19.7621C46.8838 19.6371 47.2734 19.4129 47.5411 19.263L47.0546 18.265ZM42.2631 14.6477C42.2631 13.6491 42.5549 13.1008 42.8229 12.8007C43.0416 12.5517 43.4306 12.227 44.0873 12.227C44.5254 12.227 44.9627 12.352 45.2795 12.6762C45.8384 13.2002 45.8384 13.8738 45.8384 14.4973V14.8465H42.2631V14.6477Z" fill="#006EB8"/>
<path d="M54.6917 11.9778C54.0833 11.4287 53.232 11.1045 52.357 11.1045C51.9674 11.1045 51.5546 11.1792 51.2623 11.2295C51.0196 11.3039 50.7028 11.4287 50.4357 11.5288V8.11072H48.9029V19.2124C49.8028 19.7612 50.8734 20.1357 52.0892 20.1357C52.9887 20.1357 54.2057 19.937 55.0806 18.7634C55.7861 17.79 55.9323 16.568 55.9323 15.5702C55.9323 14.6219 55.8594 13.001 54.6917 11.9778ZM52.0647 12.2271C52.6733 12.2271 53.3059 12.4268 53.6949 12.8513C54.2297 13.45 54.2297 14.348 54.2297 15.1214V15.8697C54.2297 17.3419 53.9867 17.9406 53.7677 18.265C53.5245 18.59 53.0141 18.9885 52.138 18.9885C51.8215 18.9885 51.4325 18.8884 51.1405 18.8141C50.9222 18.7387 50.6542 18.5893 50.4359 18.4638V12.7508L52.0647 12.2271Z" fill="#006EB8"/>
</svg>
