<svg width="47" height="28" viewBox="0 0 47 28" fill="none" xmlns="http://www.w3.org/2000/svg">
<path d="M33.1398 28L33.8505 27.9809L34.5514 27.9291L35.239 27.8395L35.9216 27.7167L36.5855 27.5609L37.2402 27.3719L37.8811 27.1499L38.5081 26.8997L39.1209 26.6164L39.7154 26.3095L40.2912 25.9693L40.853 25.6056L41.3917 25.2138L41.9117 24.7981L42.4132 24.3588L42.8916 23.8915L43.3514 23.405L43.7832 22.8949L44.1919 22.366L44.5772 21.8182L44.9346 21.2469L45.2692 20.661L45.571 20.0566L45.8496 19.4332L46.0956 18.7959L46.3139 18.1438L46.4999 17.4782L46.653 16.8027L46.7737 16.1085L46.8618 15.4096L46.913 14.6966L46.9314 13.9741L46.913 13.2561L46.8618 12.5479L46.7737 11.8489L46.653 11.1641L46.4999 10.4889L46.3139 9.82759L46.0956 9.17583L45.8496 8.54299L45.571 7.92445L45.2692 7.31992L44.9346 6.73908L44.5772 6.16763L44.1919 5.61973L43.7832 5.09551L43.3514 4.58545L42.8916 4.09909L42.4132 3.63627L41.9117 3.19714L41.3917 2.7817L40.853 2.38951L40.2912 2.02593L39.7154 1.69066L39.1209 1.3837L38.5081 1.10028L37.8811 0.850097L37.2402 0.628073L36.5855 0.43913L35.9216 0.283266L35.239 0.160483L34.5514 0.0707793L33.8505 0.0189241L33.1398 0L32.434 0.0189241L31.7329 0.0707793L31.0456 0.160483L30.3675 0.283266L29.7037 0.43913L29.0488 0.628073L28.4127 0.850097L27.7859 1.10028L27.1774 1.3837L26.5877 1.69066L26.0119 2.02593L25.4547 2.38951L24.9161 2.7817L24.3959 3.19714L23.8992 3.63627L23.421 4.09909L22.9658 4.58545L22.534 5.09551L22.1253 5.61973L21.7445 6.16763L21.3868 6.73908L21.0573 7.31992L20.7508 7.92445L20.4766 8.54299L20.2306 9.17583L20.0171 9.82759L19.8312 10.4889L19.678 11.1641L19.5573 11.8489L19.4691 12.5479L19.4181 13.2561L19.3995 13.9741L19.4181 14.6966L19.4691 15.4096L19.5573 16.1085L19.678 16.8027L19.8312 17.4782L20.0171 18.1438L20.2306 18.7959L20.4766 19.4332L20.7508 20.0566L21.0573 20.661L21.3868 21.2469L21.7445 21.8182L22.1253 22.366L22.534 22.8949L22.9658 23.405L23.421 23.8915L23.8992 24.3588L24.3959 24.7981L24.9161 25.2138L25.4547 25.6056L26.0119 25.9693L26.5877 26.3095L27.1774 26.6164L27.7859 26.8997L28.4127 27.1499L29.0488 27.3719L29.7037 27.5609L30.3675 27.7167L31.0456 27.8395L31.7329 27.9291L32.434 27.9809L33.1398 28Z" fill="#F7A826"/>
<path d="M14.7224 28L15.4283 27.9809L16.1295 27.9291L16.8169 27.8395L17.4949 27.7167L18.1589 27.5609L18.8134 27.3719L19.4498 27.1499L20.0767 26.8997L20.6848 26.6164L21.2746 26.3095L21.8506 25.9693L22.4079 25.6056L22.9466 25.2138L23.4665 24.7981L23.9633 24.3588L24.4418 23.8915L24.897 23.405L25.3287 22.8949L25.7373 22.366L26.1181 21.8182L26.4757 21.2469L26.8054 20.661L27.1118 20.0566L27.3858 19.4332L27.6321 18.7959L27.8454 18.1438L28.0311 17.4782L28.1846 16.8027L28.3054 16.1085L28.3934 15.4096L28.4447 14.6966L28.4631 13.9741L28.4447 13.2561L28.3934 12.5479L28.3054 11.8489L28.1846 11.1641L28.0311 10.4889L27.8454 9.82759L27.6321 9.17583L27.3858 8.54299L27.1118 7.92445L26.8054 7.31992L26.4757 6.73908L26.1181 6.16763L25.7373 5.61973L25.3287 5.09551L24.897 4.58545L24.4418 4.09909L23.9633 3.63627L23.4665 3.19714L22.9466 2.7817L22.4079 2.38951L21.8506 2.02593L21.2746 1.69066L20.6848 1.3837L20.0767 1.10028L19.4498 0.850097L18.8134 0.628073L18.1589 0.43913L17.4949 0.283266L16.8169 0.160483L16.1295 0.0707793L15.4283 0.0189241L14.7224 0L14.0122 0.0189241L13.3111 0.0707793L12.6237 0.160483L11.9409 0.283266L11.277 0.43913L10.6222 0.628073L9.98139 0.850097L9.35444 1.10028L8.74171 1.3837L8.14723 1.69066L7.57131 2.02593L7.0096 2.38951L6.47065 2.7817L5.95068 3.19714L5.44927 3.63627L4.97106 4.09909L4.5111 4.58545L4.07913 5.09551L3.67078 5.61973L3.28548 6.16763L2.92773 6.73908L2.59331 7.31992L2.29122 7.92445L2.0129 8.54299L1.7669 9.17583L1.54845 9.82759L1.36276 10.4889L1.20954 11.1641L1.08894 11.8489L1.00051 12.5479L0.949631 13.2561L0.930786 13.9741L0.949631 14.6966L1.00051 15.4096L1.08894 16.1085L1.20954 16.8027L1.36276 17.4782L1.54845 18.1438L1.7669 18.7959L2.0129 19.4332L2.29122 20.0566L2.59331 20.661L2.92773 21.2469L3.28548 21.8182L3.67078 22.366L4.07913 22.8949L4.5111 23.405L4.97106 23.8915L5.44927 24.3588L5.95068 24.7981L6.47065 25.2138L7.0096 25.6056L7.57131 25.9693L8.14723 26.3095L8.74171 26.6164L9.35444 26.8997L9.98139 27.1499L10.6222 27.3719L11.277 27.5609L11.9409 27.7167L12.6237 27.8395L13.3111 27.9291L14.0122 27.9809L14.7224 28Z" fill="#ED1C2E"/>
<path d="M22.3195 5.36928H29.6334V4.60889H22.9511L22.3195 5.36928Z" fill="#F7A826"/>
<path d="M21.2237 7.0602H29.6333V6.2998H21.6647L21.2237 7.0602Z" fill="#F7A826"/>
<path d="M20.4054 8.74623H29.6324V7.98584H20.7305L20.4054 8.74623Z" fill="#F7A826"/>
<path d="M19.8448 10.4365H29.6337V9.67627H20.0771L19.8448 10.4365Z" fill="#F7A826"/>
<path d="M20.1689 18.6071H29.6559V17.8467H19.9366L20.1689 18.6071Z" fill="#F7A826"/>
<path d="M20.8708 20.2977H29.6567V19.5376H20.5226L20.8708 20.2977Z" fill="#F7A826"/>
<path d="M21.8549 21.984H29.6564V21.2236H21.3859L21.8549 21.984Z" fill="#F7A826"/>
<path d="M23.2109 23.6742H29.6561V22.9092H22.5558L23.2109 23.6742Z" fill="#F7A826"/>
<path d="M19.5149 12.1233H29.6334V11.3628H19.6587L19.5149 12.1233Z" fill="#F7A826"/>
<path d="M25.6808 16.921H29.5397V16.1606H25.8199L25.6808 16.921Z" fill="#F7A826"/>
<path d="M25.9874 15.2349H29.5399V14.4697H26.1269L25.9874 15.2349Z" fill="#F7A826"/>
<path d="M19.2589 14.4697H20.262V15.2349H19.3054L19.2589 14.4697Z" fill="#F7A826"/>
<path d="M17.3884 13.549L17.323 13.5444L17.2582 13.5349L17.1978 13.5253L17.1375 13.5161L17.0817 13.5067L17.0215 13.4972L16.9609 13.4876L16.8961 13.4782L16.831 13.4687L16.7568 13.4639L16.6733 13.4595L16.585 13.4546H16.4875L16.3806 13.4595L16.2599 13.4687L16.1254 13.4782L16.0322 13.4924L15.9442 13.5067L15.8652 13.5349L15.7954 13.5633L15.7305 13.5963L15.6702 13.6341L15.6235 13.6813L15.5816 13.7238L15.5539 13.7757L15.5309 13.8277L15.5215 13.8844V13.9412L15.5354 14.0025L15.5539 14.0637L15.5915 14.1252L15.6374 14.1866L15.7305 14.2762L15.842 14.3473L15.9719 14.4085L16.1112 14.4605L16.2599 14.5076L16.413 14.5598L16.5662 14.6164L16.7151 14.6779L16.8544 14.7579L16.9842 14.8572L17.1002 14.9753L17.1978 15.1217L17.2723 15.3011L17.3187 15.5139L17.3372 15.7687L17.3187 16.0661L17.2861 16.2881L17.2304 16.4817L17.1559 16.6612L17.0633 16.8169L16.9564 16.954L16.8357 17.0719L16.7055 17.1761L16.5617 17.2658L16.413 17.3364L16.2599 17.3979L16.1019 17.445L15.9395 17.4829L15.7815 17.5112L15.6283 17.5255L15.4751 17.5349L15.331 17.5396H15.1313L14.9457 17.5349H14.7832L14.63 17.5301L14.4907 17.5255L14.3654 17.5159L14.254 17.5066L14.1468 17.4924L14.0494 17.4829L13.9611 17.4641L13.8732 17.4499L13.7939 17.4262L13.7152 17.4075L13.6406 17.3792L13.5666 17.3508L13.4874 17.3222L13.6965 16.2789L13.7385 16.2881L13.7895 16.3023L13.8543 16.3213L13.9333 16.3401L14.017 16.3589L14.1099 16.378L14.2122 16.4014L14.3235 16.4204L14.4397 16.4392L14.5604 16.458L14.6858 16.4724L14.8158 16.4866L14.9503 16.4914L15.085 16.496H15.2197L15.3543 16.4914L15.4892 16.4629L15.5957 16.425L15.6793 16.373L15.7443 16.307L15.7907 16.241L15.8281 16.1652L15.8513 16.0898L15.87 16.019L15.8789 15.8821L15.8372 15.764L15.7585 15.6696L15.6424 15.5893L15.5031 15.5183L15.3404 15.4475L15.1592 15.3814L14.978 15.306L14.7925 15.2209L14.6161 15.1217L14.4534 14.9987L14.3048 14.8524L14.1886 14.673L14.1051 14.4605L14.0633 14.2054L14.0681 13.9032L14.0912 13.719L14.1239 13.5444L14.1705 13.3838L14.2258 13.2327L14.3001 13.091L14.3838 12.9682L14.4814 12.8502L14.5974 12.7463L14.7323 12.6566L14.8808 12.5811L15.0478 12.51L15.2336 12.4581L15.4426 12.4157L15.6702 12.3826L15.9208 12.3637L16.1951 12.3589H16.3666L16.5244 12.3637L16.6685 12.3684L16.7987 12.3732L16.9147 12.3826L17.0215 12.3921L17.1141 12.4015L17.1978 12.4109L17.2769 12.4204L17.3419 12.4344L17.4023 12.444L17.458 12.4534L17.5044 12.4629L17.5464 12.4675L17.5879 12.4771L17.6251 12.4818L17.3884 13.549Z" fill="white"/>
<path d="M17.3884 13.549V13.549L17.323 13.5444L17.2582 13.5349L17.1978 13.5253L17.1375 13.5161L17.0817 13.5067L17.0215 13.4972L16.9609 13.4876L16.8961 13.4782L16.831 13.4687L16.7568 13.4639L16.6733 13.4595L16.585 13.4546H16.4875L16.3806 13.4595L16.2599 13.4687L16.1254 13.4782V13.4782L16.0322 13.4924L15.9442 13.5067L15.8652 13.5349L15.7954 13.5633L15.7305 13.5963L15.6702 13.6341L15.6235 13.6813L15.5816 13.7238L15.5539 13.7757L15.5309 13.8277L15.5215 13.8844V13.9412L15.5354 14.0025L15.5539 14.0637L15.5915 14.1252L15.6374 14.1866V14.1866L15.7305 14.2762L15.842 14.3473L15.9719 14.4085L16.1112 14.4605L16.2599 14.5076L16.413 14.5598L16.5662 14.6164L16.7151 14.6779L16.8544 14.7579L16.9842 14.8572L17.1002 14.9753L17.1978 15.1217L17.2723 15.3011L17.3187 15.5139L17.3372 15.7687L17.3187 16.0661V16.0661L17.2861 16.2881L17.2304 16.4817L17.1559 16.6612L17.0633 16.8169L16.9564 16.954L16.8357 17.0719L16.7055 17.1761L16.5617 17.2658L16.413 17.3364L16.2599 17.3979L16.1019 17.445L15.9395 17.4829L15.7815 17.5112L15.6283 17.5255L15.4751 17.5349L15.331 17.5396V17.5396H15.1313L14.9457 17.5349H14.7832L14.63 17.5301L14.4907 17.5255L14.3654 17.5159L14.254 17.5066L14.1468 17.4924L14.0494 17.4829L13.9611 17.4641L13.8732 17.4499L13.7939 17.4262L13.7152 17.4075L13.6406 17.3792L13.5666 17.3508L13.4874 17.3222L13.6965 16.2789V16.2789L13.7385 16.2881L13.7895 16.3023L13.8543 16.3213L13.9333 16.3401L14.017 16.3589L14.1099 16.378L14.2122 16.4014L14.3235 16.4204L14.4397 16.4392L14.5604 16.458L14.6858 16.4724L14.8158 16.4866L14.9503 16.4914L15.085 16.496H15.2197L15.3543 16.4914V16.4914L15.4892 16.4629L15.5957 16.425L15.6793 16.373L15.7443 16.307L15.7907 16.241L15.8281 16.1652L15.8513 16.0898L15.87 16.019V16.019L15.8789 15.8821L15.8372 15.764L15.7585 15.6696L15.6424 15.5893L15.5031 15.5183L15.3404 15.4475L15.1592 15.3814L14.978 15.306L14.7925 15.2209L14.6161 15.1217L14.4534 14.9987L14.3048 14.8524L14.1886 14.673L14.1051 14.4605L14.0633 14.2054L14.0681 13.9032V13.9032L14.0912 13.719L14.1239 13.5444L14.1705 13.3838L14.2258 13.2327L14.3001 13.091L14.3838 12.9682L14.4814 12.8502L14.5974 12.7463L14.7323 12.6566L14.8808 12.5811L15.0478 12.51L15.2336 12.4581L15.4426 12.4157L15.6702 12.3826L15.9208 12.3637L16.1951 12.3589V12.3589H16.3666L16.5244 12.3637L16.6685 12.3684L16.7987 12.3732L16.9147 12.3826L17.0215 12.3921L17.1141 12.4015L17.1978 12.4109L17.2769 12.4204L17.3419 12.4344L17.4023 12.444L17.458 12.4534L17.5044 12.4629L17.5464 12.4675L17.5879 12.4771L17.6251 12.4818L17.3884 13.549" stroke="white" stroke-width="0.216"/>
<path d="M18.4883 11.3154H19.7746L19.5841 12.4582H20.3597L20.1923 13.5254L19.3752 13.502L18.9294 16.1371L18.9248 16.2314L18.948 16.3117L18.9945 16.3731L19.0547 16.4251L19.1382 16.458L19.2315 16.4866L19.3332 16.5054L19.4448 16.5147L19.547 16.51L19.6397 16.5006L19.7237 16.4866L19.7976 16.4677L19.858 16.4488L19.8999 16.4346L19.9278 16.4251L19.937 16.4205L19.7746 17.2989L19.7421 17.3223L19.7095 17.3414L19.677 17.3601L19.6444 17.3792L19.6121 17.3934L19.5748 17.4075L19.5331 17.4217L19.4912 17.4358L19.4448 17.45L19.3985 17.4592L19.3429 17.4688L19.2871 17.4783L19.2266 17.4877L19.1569 17.4971L19.0825 17.5066L19.0037 17.516H18.6507L18.4649 17.5018L18.3026 17.4829L18.1538 17.4546L18.0284 17.4217L17.9217 17.3792L17.8334 17.3318L17.7544 17.2752L17.6941 17.2138L17.6479 17.1478L17.6151 17.0673L17.5919 16.987L17.578 16.8975L17.5734 16.7984V16.6942L17.5873 16.5859L17.6012 16.4677L18.4883 11.3154Z" fill="white"/>
<path d="M18.4883 11.3154H19.7746L19.5841 12.4582H20.3597L20.1923 13.5254L19.3752 13.502L18.9294 16.1371V16.1371L18.9248 16.2314L18.948 16.3117L18.9945 16.3731L19.0547 16.4251L19.1382 16.458L19.2315 16.4866L19.3332 16.5054L19.4448 16.5147V16.5147L19.547 16.51L19.6397 16.5006L19.7237 16.4866L19.7976 16.4677L19.858 16.4488L19.8999 16.4346L19.9278 16.4251L19.937 16.4205L19.7746 17.2989V17.2989L19.7421 17.3223L19.7095 17.3414L19.677 17.3601L19.6444 17.3792L19.6121 17.3934L19.5748 17.4075L19.5331 17.4217L19.4912 17.4358L19.4448 17.45L19.3985 17.4592L19.3429 17.4688L19.2871 17.4783L19.2266 17.4877L19.1569 17.4971L19.0825 17.5066L19.0037 17.516H18.6507V17.516L18.4649 17.5018L18.3026 17.4829L18.1538 17.4546L18.0284 17.4217L17.9217 17.3792L17.8334 17.3318L17.7544 17.2752L17.6941 17.2138L17.6479 17.1478L17.6151 17.0673L17.5919 16.987L17.578 16.8975L17.5734 16.7984V16.6942L17.5873 16.5859L17.6012 16.4677L18.4883 11.3154" stroke="white" stroke-width="0.216"/>
<path d="M21.3861 15.306L21.3721 15.386L21.3679 15.4711L21.377 15.5609L21.3955 15.6505L21.428 15.7403L21.4653 15.8254L21.5162 15.915L21.5718 15.9953L21.6369 16.0756L21.7068 16.1464L21.781 16.2173L21.8646 16.274L21.9481 16.326L22.041 16.3684L22.1338 16.4014L22.2269 16.4204L22.3475 16.4392L22.4636 16.4534L22.5842 16.4677L22.705 16.477L22.8257 16.4817H22.9511L23.0718 16.477L23.1974 16.4677L23.3229 16.4487L23.4482 16.425L23.578 16.3967L23.7036 16.3543L23.8333 16.3023L23.968 16.2456L24.098 16.1701L24.2328 16.0898L24.047 17.2514L23.9728 17.2893L23.8985 17.327L23.8242 17.3555L23.7545 17.3838L23.6849 17.4075L23.6105 17.4309L23.5361 17.4499L23.4571 17.4641L23.3738 17.4782L23.281 17.4876L23.1835 17.497L23.0765 17.5066L22.956 17.5112H22.8305L22.6864 17.5159H22.5333L22.3057 17.5112L22.0735 17.4876L21.8413 17.4545L21.6092 17.3979L21.3818 17.327L21.1632 17.2373L20.9544 17.1194L20.7595 16.9823L20.5783 16.8219L20.4203 16.6283L20.2859 16.4109L20.1743 16.1607L20.0951 15.8821L20.0443 15.5656L20.0303 15.216L20.0537 14.8287L20.0721 14.6779L20.1001 14.503L20.1369 14.3188L20.1883 14.1203L20.2581 13.9175L20.3416 13.7143L20.4481 13.5067L20.5783 13.3082L20.7267 13.1193L20.9079 12.9399L21.1123 12.7792L21.3445 12.6377L21.6136 12.5197L21.9157 12.4344L22.2499 12.3778L22.626 12.3589L22.807 12.3637L22.9978 12.3826L23.1878 12.4157L23.3786 12.4629L23.5641 12.5337L23.7453 12.6188L23.9125 12.732L24.0657 12.8643L24.205 13.025L24.3209 13.2138L24.4139 13.431L24.479 13.6813L24.5161 13.9646L24.5207 14.2857L24.4882 14.6447L24.4185 15.0415L24.3953 15.3294H21.01L21.2238 14.399H23.2575L23.2671 14.2811L23.2623 14.1677L23.253 14.0637L23.2345 13.9695L23.2017 13.8797L23.1694 13.7994L23.123 13.7284L23.0765 13.6624L23.0208 13.6058L22.9604 13.5584L22.8908 13.5161L22.8212 13.4782L22.747 13.4498L22.6725 13.431L22.5936 13.4169L22.51 13.4073L22.4219 13.4121L22.3384 13.4262L22.2591 13.4452L22.1804 13.4735L22.1014 13.5112L22.0316 13.5538L21.962 13.6058L21.9017 13.6624L21.8413 13.7284L21.7856 13.7994L21.7345 13.8748L21.6929 13.9554L21.651 14.0403L21.6185 14.1348L21.5907 14.2291L21.5718 14.3282L21.3861 15.306Z" fill="white"/>
<path d="M21.3861 15.306V15.306L21.3721 15.386L21.3679 15.4711L21.377 15.5609L21.3955 15.6505L21.428 15.7403L21.4653 15.8254L21.5162 15.915L21.5718 15.9953L21.6369 16.0756L21.7068 16.1464L21.781 16.2173L21.8646 16.274L21.9481 16.326L22.041 16.3684L22.1338 16.4014L22.2269 16.4204V16.4204L22.3475 16.4392L22.4636 16.4534L22.5842 16.4677L22.705 16.477L22.8257 16.4817H22.9511L23.0718 16.477L23.1974 16.4677L23.3229 16.4487L23.4482 16.425L23.578 16.3967L23.7036 16.3543L23.8333 16.3023L23.968 16.2456L24.098 16.1701L24.2328 16.0898L24.047 17.2514V17.2514L23.9728 17.2893L23.8985 17.327L23.8242 17.3555L23.7545 17.3838L23.6849 17.4075L23.6105 17.4309L23.5361 17.4499L23.4571 17.4641L23.3738 17.4782L23.281 17.4876L23.1835 17.497L23.0765 17.5066L22.956 17.5112H22.8305L22.6864 17.5159H22.5333V17.5159L22.3057 17.5112L22.0735 17.4876L21.8413 17.4545L21.6092 17.3979L21.3818 17.327L21.1632 17.2373L20.9544 17.1194L20.7595 16.9823L20.5783 16.8219L20.4203 16.6283L20.2859 16.4109L20.1743 16.1607L20.0951 15.8821L20.0443 15.5656L20.0303 15.216L20.0537 14.8287V14.8287L20.0721 14.6779L20.1001 14.503L20.1369 14.3188L20.1883 14.1203L20.2581 13.9175L20.3416 13.7143L20.4481 13.5067L20.5783 13.3082L20.7267 13.1193L20.9079 12.9399L21.1123 12.7792L21.3445 12.6377L21.6136 12.5197L21.9157 12.4344L22.2499 12.3778L22.626 12.3589V12.3589L22.807 12.3637L22.9978 12.3826L23.1878 12.4157L23.3786 12.4629L23.5641 12.5337L23.7453 12.6188L23.9125 12.732L24.0657 12.8643L24.205 13.025L24.3209 13.2138L24.4139 13.431L24.479 13.6813L24.5161 13.9646L24.5207 14.2857L24.4882 14.6447L24.4185 15.0415L24.3953 15.3294H21.01L21.2238 14.399H23.2575V14.399L23.2671 14.2811L23.2623 14.1677L23.253 14.0637L23.2345 13.9695L23.2017 13.8797L23.1694 13.7994L23.123 13.7284L23.0765 13.6624L23.0208 13.6058L22.9604 13.5584L22.8908 13.5161L22.8212 13.4782L22.747 13.4498L22.6725 13.431L22.5936 13.4169L22.51 13.4073V13.4073L22.4219 13.4121L22.3384 13.4262L22.2591 13.4452L22.1804 13.4735L22.1014 13.5112L22.0316 13.5538L21.962 13.6058L21.9017 13.6624L21.8413 13.7284L21.7856 13.7994L21.7345 13.8748L21.6929 13.9554L21.651 14.0403L21.6185 14.1348L21.5907 14.2291L21.5718 14.3282L21.3861 15.306" stroke="white" stroke-width="0.216"/>
<path d="M32.4621 12.7413L32.4018 12.7083L32.3415 12.6799L32.2765 12.6469L32.2068 12.6138L32.1372 12.5855L32.0581 12.5572L31.9792 12.5289L31.8956 12.5004L31.8074 12.4768L31.7192 12.4579L31.6217 12.439L31.5242 12.425L31.4174 12.4155L31.3104 12.4061H31.199H31.0831H30.967L30.8461 12.4155L30.7207 12.4296L30.5909 12.4532L30.4606 12.491L30.3309 12.543L30.2007 12.6092L30.0705 12.6941L29.9455 12.798L29.8246 12.9207L29.7084 13.0718L29.597 13.2466L29.4949 13.4543L29.3972 13.6905L29.3092 13.9552L29.235 14.2572L29.207 14.4271L29.1883 14.5925L29.1791 14.7577L29.1838 14.9185L29.1978 15.0788L29.2302 15.2301L29.272 15.3716L29.323 15.5137L29.3927 15.6411L29.4762 15.7638L29.5738 15.8723L29.6851 15.9714L29.8108 16.0563L29.9546 16.1274L30.1126 16.1888L30.2891 16.2311L30.3493 16.2454L30.4189 16.2596L30.5024 16.2691L30.5954 16.2787L30.6975 16.2879H30.8043H30.9206L31.0365 16.2787L31.1573 16.2642L31.278 16.2408L31.394 16.2077L31.5103 16.1699L31.6262 16.1179L31.7331 16.0563L31.8306 15.9809L31.9234 15.896L31.7147 17.1569L31.6867 17.1805L31.6589 17.2086L31.6217 17.2419L31.58 17.2702L31.5287 17.308L31.4636 17.3411L31.3895 17.374L31.3059 17.4023L31.199 17.4356L31.0783 17.459L30.9391 17.478L30.7765 17.4968L30.5954 17.5064L30.3866 17.511L30.1494 17.5064L29.8895 17.4922L29.676 17.4685L29.4623 17.4214L29.2488 17.3506L29.0351 17.2562L28.8309 17.1428L28.6359 17.0009L28.4501 16.8358L28.2783 16.6469L28.1251 16.4344L27.995 16.1982L27.8836 15.9339L27.8001 15.6457L27.7444 15.3292L27.7257 14.9939L27.735 14.6256L27.7862 14.2338L27.823 14.0401L27.8649 13.8512L27.9114 13.667L27.9578 13.4922L28.009 13.3269L28.0691 13.1615L28.1297 13.0058L28.1945 12.8594L28.2645 12.7129L28.3341 12.5761L28.413 12.4438L28.4963 12.321L28.5799 12.203L28.6732 12.0896L28.7658 11.9857L28.8632 11.8866L28.97 11.7922L29.077 11.7023L29.1883 11.6221L29.3046 11.5466L29.43 11.4755L29.5552 11.4143L29.6851 11.3576L29.8199 11.3056L29.964 11.2584L30.1078 11.2206L30.2564 11.1876L30.4144 11.1592L30.5721 11.1356L30.7395 11.1167L30.9067 11.1073L31.0831 11.1025L31.2317 11.1073L31.3756 11.1167L31.5148 11.1307L31.6542 11.1498L31.7842 11.1687L31.9096 11.197L32.0304 11.2206L32.1417 11.2489L32.2485 11.2773L32.3415 11.3056L32.4296 11.334L32.5041 11.3623L32.5689 11.386L32.6247 11.4047L32.6666 11.4237L32.6943 11.4332L32.4621 12.7413Z" fill="white"/>
<path d="M32.4621 12.7413V12.7413L32.4018 12.7083L32.3415 12.6799L32.2765 12.6469L32.2068 12.6138L32.1372 12.5855L32.0581 12.5572L31.9792 12.5289L31.8956 12.5004L31.8074 12.4768L31.7192 12.4579L31.6217 12.439L31.5242 12.425L31.4174 12.4155L31.3104 12.4061H31.199H31.0831V12.4061H30.967L30.8461 12.4155L30.7207 12.4296L30.5909 12.4532L30.4606 12.491L30.3309 12.543L30.2007 12.6092L30.0705 12.6941L29.9455 12.798L29.8246 12.9207L29.7084 13.0718L29.597 13.2466L29.4949 13.4543L29.3972 13.6905L29.3092 13.9552L29.235 14.2572V14.2572L29.207 14.4271L29.1883 14.5925L29.1791 14.7577L29.1838 14.9185L29.1978 15.0788L29.2302 15.2301L29.272 15.3716L29.323 15.5137L29.3927 15.6411L29.4762 15.7638L29.5738 15.8723L29.6851 15.9714L29.8108 16.0563L29.9546 16.1274L30.1126 16.1888L30.2891 16.2311V16.2311L30.3493 16.2454L30.4189 16.2596L30.5024 16.2691L30.5954 16.2787L30.6975 16.2879H30.8043H30.9206L31.0365 16.2787L31.1573 16.2642L31.278 16.2408L31.394 16.2077L31.5103 16.1699L31.6262 16.1179L31.7331 16.0563L31.8306 15.9809L31.9234 15.896L31.7147 17.1569V17.1569L31.6867 17.1805L31.6589 17.2086L31.6217 17.2419L31.58 17.2702L31.5287 17.308L31.4636 17.3411L31.3895 17.374L31.3059 17.4023L31.199 17.4356L31.0783 17.459L30.9391 17.478L30.7765 17.4968L30.5954 17.5064L30.3866 17.511L30.1494 17.5064L29.8895 17.4922V17.4922L29.676 17.4685L29.4623 17.4214L29.2488 17.3506L29.0351 17.2562L28.8309 17.1428L28.6359 17.0009L28.4501 16.8358L28.2783 16.6469L28.1251 16.4344L27.995 16.1982L27.8836 15.9339L27.8001 15.6457L27.7444 15.3292L27.7257 14.9939L27.735 14.6256L27.7862 14.2338V14.2338L27.823 14.0401L27.8649 13.8512L27.9114 13.667L27.9578 13.4922L28.009 13.3269L28.0691 13.1615L28.1297 13.0058L28.1945 12.8594L28.2645 12.7129L28.3341 12.5761L28.413 12.4438L28.4963 12.321L28.5799 12.203L28.6732 12.0896L28.7658 11.9857L28.8632 11.8866L28.97 11.7922L29.077 11.7023L29.1883 11.6221L29.3046 11.5466L29.43 11.4755L29.5552 11.4143L29.6851 11.3576L29.8199 11.3056L29.964 11.2584L30.1078 11.2206L30.2564 11.1876L30.4144 11.1592L30.5721 11.1356L30.7395 11.1167L30.9067 11.1073L31.0831 11.1025V11.1025L31.2317 11.1073L31.3756 11.1167L31.5148 11.1307L31.6542 11.1498L31.7842 11.1687L31.9096 11.197L32.0304 11.2206L32.1417 11.2489L32.2485 11.2773L32.3415 11.3056L32.4296 11.334L32.5041 11.3623L32.5689 11.386L32.6247 11.4047L32.6666 11.4237L32.6943 11.4332L32.4621 12.7413" stroke="white" stroke-width="0.216"/>
<path d="M43.8934 17.5159H42.6071L42.7 16.9918V16.9444L42.6256 17.0389L42.5468 17.1238L42.4679 17.1997L42.3844 17.2657L42.3008 17.3269L42.2171 17.3791L42.1336 17.4216L42.0452 17.464L41.9572 17.497L41.8688 17.5207L41.7807 17.5443L41.6877 17.5585L41.5948 17.5727L41.5067 17.582L41.4138 17.587H41.3208L41.0795 17.5679L40.8565 17.5159L40.6522 17.4357L40.4666 17.3269L40.2992 17.19L40.1505 17.0297L40.0206 16.8549L39.9092 16.6566L39.8163 16.4438L39.7421 16.2222L39.6909 15.9906L39.6537 15.7498L39.6398 15.5089L39.6446 15.2632L39.6677 15.0224L39.7098 14.7816L39.7792 14.5029L39.863 14.2384L39.9604 13.9978L40.0764 13.771L40.1971 13.5584L40.3363 13.3696L40.4805 13.1997L40.6336 13.0437L40.7962 12.9067L40.9679 12.7886L41.1446 12.6849L41.3208 12.6046L41.5067 12.5384L41.6922 12.4961L41.8782 12.4675L42.0685 12.4581L42.2032 12.4628L42.3331 12.477L42.4538 12.5005L42.5653 12.5336L42.6723 12.5715L42.7651 12.6139L42.8581 12.6659L42.9416 12.7178L43.0158 12.7744L43.0854 12.8358L43.1457 12.8972L43.2017 12.9587L43.2479 13.0201L43.2898 13.0814L43.3269 13.1382L43.3548 13.1949L43.6799 11.3389H44.9429L43.8934 17.5159Z" fill="white"/>
<path d="M43.8934 17.5159H42.6071L42.7 16.9918V16.9444V16.9444L42.6256 17.0389L42.5468 17.1238L42.4679 17.1997L42.3844 17.2657L42.3008 17.3269L42.2171 17.3791L42.1336 17.4216L42.0452 17.464L41.9572 17.497L41.8688 17.5207L41.7807 17.5443L41.6877 17.5585L41.5948 17.5727L41.5067 17.582L41.4138 17.587H41.3208V17.587L41.0795 17.5679L40.8565 17.5159L40.6522 17.4357L40.4666 17.3269L40.2992 17.19L40.1505 17.0297L40.0206 16.8549L39.9092 16.6566L39.8163 16.4438L39.7421 16.2222L39.6909 15.9906L39.6537 15.7498L39.6398 15.5089L39.6446 15.2632L39.6677 15.0224L39.7098 14.7816V14.7816L39.7792 14.5029L39.863 14.2384L39.9604 13.9978L40.0764 13.771L40.1971 13.5584L40.3363 13.3696L40.4805 13.1997L40.6336 13.0437L40.7962 12.9067L40.9679 12.7886L41.1446 12.6849L41.3208 12.6045L41.5067 12.5384L41.6922 12.4961L41.8782 12.4675L42.0685 12.4581V12.4581L42.2032 12.4628L42.3331 12.477L42.4538 12.5005L42.5653 12.5336L42.6723 12.5715L42.7651 12.6139L42.8581 12.6659L42.9416 12.7178L43.0158 12.7744L43.0854 12.8358L43.1457 12.8972L43.2017 12.9587L43.2479 13.0201L43.2898 13.0814L43.3269 13.1382L43.3548 13.1949V13.1949L43.6799 11.3389H44.9429L43.8934 17.5159" stroke="white" stroke-width="0.216"/>
<path d="M41.7905 16.373L41.9204 16.3637L42.0412 16.3354L42.1527 16.3022L42.2593 16.2502L42.3569 16.1936L42.4498 16.1228L42.538 16.0426L42.617 15.9574L42.6865 15.8631L42.7518 15.7591L42.8119 15.6504L42.8631 15.5372L42.9095 15.4192L42.9466 15.2964L42.9791 15.1688L43.0024 15.0414L43.0256 14.909L43.0395 14.772V14.6446L43.0347 14.5124L43.0211 14.3897L43.0024 14.2715L42.9699 14.1583L42.9327 14.0496L42.8863 13.9553L42.8306 13.8653L42.7702 13.7898L42.7004 13.7237L42.6216 13.6671L42.538 13.6293L42.4498 13.6057L42.3524 13.5962L42.2269 13.6057L42.1109 13.6247L42.0039 13.6624L41.8971 13.7096L41.8042 13.771L41.7115 13.8467L41.6325 13.9268L41.5535 14.0165L41.4838 14.1203L41.4189 14.229L41.3586 14.3423L41.3074 14.4651L41.261 14.5926L41.2239 14.72L41.1867 14.8571L41.159 14.994L41.1358 15.2019L41.1451 15.4286L41.1775 15.66L41.2378 15.882L41.3306 16.0756L41.4515 16.2313L41.6047 16.3354L41.7905 16.373Z" fill="#FCB331"/>
<path d="M13.2742 16.4674L13.0887 17.5157H11.9186L11.9511 17.322L11.9744 17.1475L11.9928 17.0153L12.0112 16.9442L11.9464 17.0199L11.8721 17.0953L11.7839 17.1663L11.6865 17.2324L11.5749 17.2986L11.4588 17.3552L11.338 17.4118L11.2126 17.4589L11.078 17.5015L10.9433 17.5346L10.8088 17.5631L10.6695 17.5819L10.5347 17.5912L10.4001 17.596L10.27 17.5819L10.1447 17.5631L9.98209 17.5205L9.83351 17.4734L9.70363 17.4118L9.58766 17.3411L9.48532 17.2655L9.3924 17.1804L9.31818 17.0907L9.25281 16.9962L9.19729 16.8972L9.15105 16.793L9.11379 16.6893L9.08582 16.5856L9.06726 16.4768L9.05334 16.3682L9.04407 16.2642V16.1605L9.05784 15.9763L9.08582 15.8013L9.13235 15.6361L9.19265 15.4756L9.26687 15.3245L9.35065 15.1876L9.44807 15.0554L9.55983 14.9372L9.67565 14.8285L9.80553 14.7294L9.94034 14.6398L10.0796 14.5641L10.2282 14.4983L10.3815 14.4461L10.5395 14.4036L10.7018 14.3753H10.7112L10.7344 14.3704L10.767 14.3658L10.8179 14.3612L10.8736 14.3516L10.9387 14.347L11.0082 14.3375L11.0874 14.3279L11.1664 14.3186L11.2453 14.3092L11.3289 14.3045L11.4031 14.295L11.4773 14.2904L11.5468 14.2855L11.612 14.2809H11.6632H11.77L11.8813 14.2855L11.9835 14.2904H12.0857L12.1694 14.295L12.2343 14.2996L12.2807 14.3045H12.2946L12.304 14.2713L12.3319 14.1864L12.3551 14.0871L12.3643 13.9976L12.3458 13.8934L12.304 13.7991L12.2484 13.714L12.1741 13.6432L12.0857 13.5819L11.9882 13.5394L11.877 13.5109L11.7558 13.5017L11.6262 13.4969L11.4868 13.4921H11.3428L11.1939 13.4969L11.0407 13.5065L10.8924 13.5203L10.7437 13.5346L10.5996 13.5535L10.4605 13.5725L10.3258 13.596L10.2052 13.6197L10.0937 13.6432L9.99151 13.6717L9.90802 13.6999L9.84293 13.7329L9.79176 13.7613L10.1217 12.6231L10.2234 12.5808L10.3258 12.543L10.4371 12.5097L10.5486 12.4862L10.6599 12.4626L10.781 12.4437L10.9016 12.4249L11.0268 12.4154L11.1571 12.406L11.2914 12.4013L11.4309 12.3965H11.5749H11.7238H11.877L12.0392 12.4013L12.2018 12.406L12.3319 12.4154L12.4712 12.439L12.615 12.472L12.7637 12.5145L12.9076 12.5713L13.0469 12.6374L13.1864 12.7176L13.3163 12.8073L13.4322 12.9113L13.5346 13.0247L13.6272 13.1521L13.6969 13.2938L13.7435 13.4449L13.7714 13.6055V13.785L13.7435 13.9739L13.2742 16.4674Z" fill="white"/>
<path d="M13.2742 16.4674L13.0887 17.5157H11.9186V17.5157L11.9511 17.322L11.9744 17.1475L11.9928 17.0153L12.0112 16.9442V16.9442L11.9464 17.0199L11.8721 17.0953L11.7839 17.1663L11.6865 17.2324L11.5749 17.2986L11.4588 17.3552L11.338 17.4118L11.2126 17.4589L11.078 17.5015L10.9433 17.5346L10.8088 17.5631L10.6695 17.5818L10.5347 17.5912L10.4001 17.596L10.27 17.5818L10.1447 17.5631V17.5631L9.98209 17.5205L9.83351 17.4734L9.70363 17.4118L9.58766 17.3411L9.48532 17.2655L9.3924 17.1804L9.31818 17.0907L9.25281 16.9962L9.19729 16.8972L9.15105 16.793L9.11379 16.6893L9.08582 16.5856L9.06726 16.4768L9.05334 16.3682L9.04407 16.2642V16.1605V16.1605L9.05784 15.9763L9.08582 15.8013L9.13235 15.6361L9.19265 15.4756L9.26687 15.3245L9.35065 15.1876L9.44807 15.0554L9.55983 14.9372L9.67565 14.8285L9.80553 14.7294L9.94034 14.6398L10.0796 14.5641L10.2282 14.4983L10.3815 14.4461L10.5395 14.4036L10.7018 14.3753V14.3753H10.7112L10.7344 14.3704L10.767 14.3658L10.8179 14.3612L10.8736 14.3516L10.9387 14.347L11.0082 14.3375L11.0874 14.3279L11.1664 14.3186L11.2453 14.3092L11.3289 14.3045L11.4031 14.295L11.4773 14.2904L11.5468 14.2855L11.612 14.2809H11.6632V14.2809H11.77L11.8813 14.2855L11.9835 14.2904H12.0857L12.1694 14.295L12.2343 14.2996L12.2807 14.3045H12.2946V14.3045L12.304 14.2713L12.3319 14.1864L12.3551 14.0871L12.3643 13.9976V13.9976L12.3458 13.8934L12.304 13.7991L12.2484 13.714L12.1741 13.6432L12.0857 13.5819L11.9882 13.5394L11.877 13.5109L11.7558 13.5017V13.5017L11.6262 13.4969L11.4868 13.4921H11.3428L11.1939 13.4969L11.0407 13.5065L10.8924 13.5203L10.7437 13.5346L10.5996 13.5535L10.4605 13.5725L10.3258 13.596L10.2052 13.6197L10.0937 13.6432L9.99151 13.6717L9.90802 13.6999L9.84293 13.7329L9.79176 13.7613L10.1217 12.6231V12.6231L10.2234 12.5808L10.3258 12.543L10.4371 12.5097L10.5486 12.4862L10.6599 12.4626L10.781 12.4437L10.9016 12.4249L11.0268 12.4154L11.1571 12.406L11.2914 12.4013L11.4309 12.3965H11.5749H11.7238H11.877L12.0392 12.4013L12.2018 12.406V12.406L12.3319 12.4154L12.4712 12.439L12.615 12.472L12.7637 12.5145L12.9076 12.5713L13.0469 12.6374L13.1864 12.7176L13.3163 12.8073L13.4322 12.9113L13.5346 13.0247L13.6272 13.1521L13.6969 13.2938L13.7435 13.4449L13.7714 13.6055V13.785L13.7435 13.9739L13.2742 16.4674" stroke="white" stroke-width="0.216"/>
<path d="M12.1544 15.2351L12.1497 15.2116L12.1313 15.1879L12.1034 15.1736L12.057 15.1642L12.006 15.1548L11.9456 15.1499H11.8761H11.8064L11.7319 15.1548L11.6529 15.1642L11.5787 15.1736L11.5043 15.1831L11.4346 15.1925L11.3698 15.207L11.3141 15.221L11.263 15.2351L11.2303 15.2445L11.1931 15.2587L11.1422 15.2776L11.0913 15.3011L11.0307 15.3295L10.9703 15.3627L10.9055 15.3956L10.8449 15.4335L10.7801 15.4806L10.7195 15.5278L10.6638 15.5846L10.6128 15.6413L10.5663 15.7027L10.5338 15.7687L10.5058 15.8443L10.4919 15.9198L10.4874 16.0803L10.5108 16.208L10.5573 16.3023L10.6173 16.3731L10.6869 16.4205L10.7662 16.4488L10.8404 16.463L10.9146 16.4677L11.0539 16.463L11.1792 16.4488L11.3002 16.4297L11.4068 16.4014L11.4998 16.3685L11.5878 16.326L11.6668 16.2836L11.7367 16.2314L11.797 16.1845L11.8528 16.1277L11.8989 16.0757L11.9363 16.0191L11.9686 15.9624L11.9966 15.9057L12.0198 15.8537L12.0337 15.8017L12.0709 15.6649L12.1034 15.509L12.1313 15.3578L12.1544 15.2351Z" fill="#ED1C2E"/>
<path d="M3.50435 17.516H2.24133L3.29547 11.3154H5.49202L5.70076 14.9942L7.21934 11.3154H9.5133L8.43597 17.516H7.17281L7.97152 12.8833H7.92035L6.03054 17.516H4.60487L4.5956 17.3223L4.56313 16.8076L4.52152 16.0757L4.47485 15.2351L4.4286 14.3898L4.38671 13.6483L4.35439 13.1099L4.34496 12.8833H4.33076H4.30307H4.27538L3.50435 17.516Z" fill="white"/>
<path d="M3.50435 17.516H2.24133L3.29547 11.3154H5.49202L5.70076 14.9942L7.21934 11.3154H9.5133L8.43597 17.516H7.17281L7.97152 12.8833H7.92035L6.03054 17.516H4.60487V17.516L4.5956 17.3223L4.56313 16.8076L4.52152 16.0757L4.47485 15.2351L4.4286 14.3898L4.38671 13.6483L4.35439 13.1099L4.34496 12.8833V12.8833H4.33076H4.30307H4.27538V12.8833L3.50435 17.516" stroke="white" stroke-width="0.216"/>
<path d="M36.3197 16.4674L36.1294 17.5157H34.9638L34.9729 17.322L34.9778 17.152V17.0246L34.9868 16.9679L34.9265 17.0387L34.8569 17.1095L34.7734 17.1758L34.6804 17.2418L34.5829 17.3031L34.4713 17.3598L34.3554 17.4164L34.2394 17.4638L34.1139 17.5015L33.984 17.5394L33.8537 17.5631L33.7238 17.5819L33.5891 17.5912L33.4591 17.596L33.3336 17.5819L33.2083 17.5631L33.0412 17.5205L32.8926 17.4734L32.7627 17.4118L32.6418 17.3411L32.5396 17.2655L32.4515 17.1804L32.377 17.0907L32.3122 16.9962L32.2565 16.8972L32.2146 16.793L32.1775 16.6893L32.1542 16.5856L32.1358 16.4768L32.1218 16.3682L32.1124 16.2642V16.1605L32.1218 15.9763L32.1497 15.8013L32.1914 15.6361L32.2517 15.4756L32.3213 15.3245L32.4097 15.1876L32.5071 15.0554L32.614 14.9372L32.7349 14.8285L32.8601 14.7294L32.9946 14.6398L33.1386 14.5641L33.2827 14.4983L33.4359 14.4461L33.5891 14.4036L33.7471 14.3753H33.7563L33.7796 14.3704L33.8119 14.3658L33.8586 14.3612L33.9187 14.3516L33.984 14.347L34.0536 14.3375L34.1276 14.3279L34.2066 14.3186L34.2903 14.3092L34.3693 14.3045L34.4483 14.295L34.5225 14.2904L34.5876 14.2855L34.6525 14.2809H34.7037H34.8152L34.9265 14.2855L35.033 14.2904H35.1354L35.2238 14.295L35.298 14.2996L35.3398 14.3045H35.3585L35.3676 14.2713L35.3815 14.1864L35.3954 14.0871L35.4049 13.9976L35.3862 13.8934L35.3492 13.7991L35.2886 13.714L35.219 13.6432L35.1354 13.5819L35.038 13.5394L34.9358 13.5109L34.8243 13.5017L34.6943 13.4969L34.5551 13.4921H34.411L34.2623 13.4969L34.1092 13.5065L33.9606 13.5203L33.8119 13.5346L33.6681 13.5535L33.5287 13.5725L33.3941 13.596L33.2734 13.6197L33.1621 13.6432L33.0597 13.6717L32.9762 13.6999L32.9111 13.7329L32.8601 13.7613L33.1853 12.6231L33.2873 12.5808L33.3941 12.543L33.5008 12.5097L33.6125 12.4862L33.7284 12.4626L33.8445 12.4437L33.9651 12.4249L34.0907 12.4154L34.2207 12.406L34.3554 12.4013L34.49 12.3965H34.6338H34.7779H34.9265L35.0844 12.4013L35.2424 12.406L35.3722 12.4154L35.5117 12.439L35.6556 12.472L35.8042 12.5145L35.9482 12.5713L36.092 12.6374L36.2313 12.7176L36.3614 12.8073L36.4774 12.9113L36.5842 13.0247L36.6772 13.1521L36.7467 13.2938L36.7981 13.4449L36.8304 13.6055V13.785L36.807 13.9739L36.3197 16.4674Z" fill="white"/>
<path d="M36.1306 17.549L36.1585 17.5207L36.3488 16.4724L36.2931 16.4629L36.1027 17.5112L36.1306 17.4829V17.549L36.1537 17.5444L36.1585 17.5207L36.1306 17.549Z" fill="white"/>
<path d="M34.9354 17.5379L34.9634 17.5935H36.129V17.4824H34.9634L34.9909 17.5379H34.9354L34.9308 17.5935H34.9634L34.9354 17.5379Z" fill="white"/>
<path d="M35.0624 16.9868L34.9916 16.9492L34.9599 17.0246L34.9523 17.152V17.322L34.9366 17.5158H35.0306L35.0465 17.322L35.0624 17.152L35.0543 17.0246V16.9868L34.984 16.9492L35.0624 16.9868Z" fill="white"/>
<path d="M33.2042 17.5913L33.334 17.6101L33.4595 17.6244L33.5895 17.6198L33.7242 17.6101L33.859 17.5913L33.9887 17.5678L34.1191 17.5299L34.2489 17.4922L34.3652 17.4448L34.4857 17.3882L34.5971 17.3316L34.6947 17.2656L34.7922 17.1996L34.8759 17.1332L34.95 17.0575L35.0105 16.9868L34.9642 16.9492L34.9037 17.02L34.8386 17.0862L34.7551 17.152L34.667 17.2183L34.5696 17.275L34.4577 17.3316L34.3463 17.3882L34.2304 17.4356L34.1096 17.4734L33.9795 17.511L33.8497 17.5347L33.7242 17.5536L33.5895 17.5631L33.4595 17.5678L33.334 17.5536L33.2136 17.5347L33.2042 17.5913Z" fill="white"/>
<path d="M32.0812 16.1606L32.0858 16.2644L32.0951 16.3684L32.1089 16.4816L32.1276 16.5904L32.1509 16.6941L32.1879 16.8027L32.2299 16.9115L32.2901 17.0106L32.3551 17.1097L32.4294 17.1997L32.5223 17.2892L32.6293 17.3649L32.75 17.4403L32.8844 17.5017L33.0379 17.549L33.205 17.5914L33.2145 17.5348L33.047 17.4923L32.9031 17.445L32.7777 17.3837L32.657 17.3176L32.5594 17.242L32.4758 17.1617L32.4015 17.0718L32.3364 16.9823L32.2856 16.883L32.2438 16.7839L32.2066 16.6849L32.1834 16.5809L32.1648 16.4724L32.1509 16.3684L32.1415 16.2644L32.1461 16.1606H32.0812Z" fill="white"/>
<path d="M33.7483 14.3477L33.5858 14.376L33.4278 14.4184L33.2746 14.4703L33.126 14.5365L32.9818 14.6121L32.8426 14.7063L32.7173 14.8059L32.5965 14.9191L32.4852 15.037L32.3876 15.1693L32.2947 15.3109L32.2251 15.4667L32.1648 15.6275L32.1231 15.7974L32.0951 15.9769L32.0812 16.1611H32.1461L32.1509 15.9769L32.1787 15.8066L32.2206 15.6463L32.2808 15.4858L32.3505 15.3393L32.434 15.2073L32.5314 15.0748L32.6338 14.957L32.7545 14.8528L32.8799 14.7537L33.0098 14.6688L33.1539 14.5931L33.293 14.5271L33.4462 14.4751L33.595 14.4326L33.7483 14.4043V14.3477Z" fill="white"/>
<path d="M34.7038 14.248H34.6526L34.5877 14.2629L34.5226 14.2705L34.4484 14.2782L34.3694 14.293L34.2904 14.3009L34.2067 14.3163L34.1277 14.3311L34.0536 14.3464L33.9841 14.3615L33.9188 14.3692L33.8587 14.3845L33.812 14.3919L33.7747 14.3993L33.7563 14.4072H33.7472V14.4982H33.7563L33.7842 14.4903L33.812 14.4829L33.8587 14.4754L33.9188 14.4601L33.9841 14.4527L34.0536 14.4374L34.1277 14.4221L34.2067 14.4072L34.2904 14.3919L34.3694 14.3845L34.4484 14.3692L34.5226 14.3615L34.5877 14.3538H34.6526H34.7038V14.248Z" fill="white"/>
<path d="M35.3309 14.3348L35.359 14.2951H35.3403L35.2986 14.2873L35.2244 14.2796L35.1359 14.2636H35.0336H34.9271L34.8157 14.248H34.7043V14.3586H34.8157H34.9271L35.0336 14.3746H35.1359H35.2244L35.2986 14.3824L35.3403 14.3906H35.359L35.3867 14.3508L35.359 14.3906L35.3821 14.3984L35.3867 14.3508L35.3309 14.3348Z" fill="white"/>
<path d="M35.4099 13.9976H35.402L35.3942 14.0871L35.3707 14.1816L35.3471 14.2667L35.3312 14.2996L35.4256 14.3091L35.4413 14.2759L35.4648 14.191L35.4883 14.0871L35.5121 13.9976H35.5043H35.4099Z" fill="white"/>
<path d="M34.8253 13.5297V13.5344L34.9322 13.5392L35.0297 13.5677L35.1225 13.61L35.2015 13.6667L35.2664 13.7328L35.3222 13.8131L35.3595 13.8982L35.3779 13.9974H35.4337L35.415 13.8886L35.3779 13.7848L35.313 13.6951L35.2387 13.6195L35.1505 13.5533L35.0483 13.5107L34.9414 13.4824L34.8253 13.4683V13.473V13.5297Z" fill="white"/>
<path d="M32.8331 13.7564L32.8795 13.7847L32.9258 13.761L32.9864 13.7279L33.0652 13.6996L33.1674 13.6715L33.2787 13.6478L33.3996 13.6242L33.5343 13.6005L33.669 13.5816L33.8128 13.5628L33.9615 13.5485L34.1101 13.5344L34.2631 13.5248H34.4119H34.556H34.6951L34.8251 13.5296V13.473L34.6951 13.4682L34.556 13.459H34.4119L34.2631 13.4682L34.1101 13.4778L33.9615 13.4919L33.8128 13.5062L33.669 13.5248L33.5249 13.5439L33.3902 13.5676L33.2697 13.5912L33.158 13.6147L33.0559 13.643L32.9677 13.6715L32.8979 13.7044L32.8423 13.7375L32.8888 13.7658L32.8331 13.7564Z" fill="white"/>
<path d="M33.1767 12.5952L33.158 12.6189L32.8331 13.757L32.8888 13.7664L33.2141 12.6283L33.1952 12.6518L33.1767 12.5952L33.1629 12.6L33.158 12.6189L33.1767 12.5952Z" fill="white"/>
<path d="M35.2434 12.3774L35.0854 12.368L34.9275 12.3633H34.779H34.6349H34.4911L34.3564 12.3728L34.2217 12.3774L34.0917 12.387L33.9662 12.3964L33.8408 12.4153L33.7248 12.4341L33.6087 12.4578L33.4972 12.4814L33.3859 12.5144L33.2789 12.5522L33.1769 12.5947L33.1954 12.6513L33.2978 12.609L33.4043 12.5711L33.5065 12.5381L33.618 12.5144L33.7342 12.4908L33.8504 12.4719L33.9662 12.453L34.0917 12.4436L34.2217 12.4341L34.3564 12.4294H34.4911H34.6349H34.779H34.9275L35.0854 12.4341H35.2434V12.3774Z" fill="white"/>
<path d="M36.8359 13.9789L36.8591 13.7853V13.6059L36.8268 13.4405L36.7756 13.2848L36.7014 13.1383L36.6082 13.0062L36.4969 12.8881L36.3808 12.7841L36.2461 12.6944L36.1069 12.6095L35.9582 12.5433L35.8144 12.4866L35.6612 12.4441L35.5173 12.411L35.3732 12.3875L35.2433 12.3779V12.4346L35.3732 12.4441L35.5078 12.4676L35.6519 12.5007L35.7957 12.5433L35.9397 12.6L36.0791 12.6661L36.2183 12.7417L36.3437 12.8314L36.4598 12.9352L36.562 13.0439L36.6547 13.1666L36.72 13.3036L36.7709 13.4499L36.8035 13.6059V13.7853L36.7801 13.9696L36.8359 13.9789Z" fill="white"/>
<path d="M36.3478 16.4721L36.8353 13.9785L36.7795 13.9692L36.2921 16.4626L36.3478 16.4721Z" fill="white"/>
<path d="M35.1966 15.2347L35.1876 15.2066L35.1689 15.1827L35.1363 15.1686L35.0901 15.1544L35.0389 15.1495L34.9788 15.145H34.9087L34.8392 15.1495L34.7649 15.159L34.6907 15.1686L34.6162 15.178L34.5468 15.1875L34.4771 15.2016L34.4165 15.2112L34.3563 15.2253L34.3099 15.2347L34.2773 15.2395L34.2403 15.2535L34.1938 15.2678L34.1425 15.2866L34.0823 15.3149L34.0267 15.3432L33.9616 15.3764L33.9013 15.4189L33.8407 15.4614L33.7805 15.5135L33.7294 15.5652L33.6782 15.6268L33.6366 15.6926L33.6041 15.7637L33.5761 15.8393L33.5622 15.9194L33.5577 16.0799L33.5806 16.2076L33.6179 16.3019L33.6737 16.3727L33.7433 16.4201L33.8223 16.4484L33.9013 16.4626L33.98 16.4673L34.1196 16.4626L34.2495 16.4484L34.3702 16.4247L34.4771 16.3918L34.5794 16.3539L34.6675 16.3113L34.751 16.2641L34.8253 16.2076L34.8902 16.1554L34.946 16.0941L34.9972 16.0374L35.0389 15.9762L35.0714 15.9194L35.0946 15.8628L35.1131 15.8059L35.1271 15.7542L35.1458 15.6218L35.1689 15.4851L35.1876 15.3527L35.1966 15.2347Z" fill="#FCB331"/>
<path d="M36.6691 17.5159H37.9786L38.4478 14.8287L38.4661 14.725L38.4938 14.621L38.5219 14.5171L38.559 14.4134L38.6056 14.3094L38.6612 14.2103L38.7215 14.1157L38.796 14.0261L38.8795 13.9457L38.9722 13.8703L39.079 13.7993L39.1999 13.7427L39.3346 13.6955L39.4831 13.6578L39.6456 13.6293L39.8267 13.6199H39.8918H39.9287H39.9427L40.1515 12.4062L40.0217 12.4156L39.8964 12.4298L39.7803 12.4533L39.6688 12.4864L39.5666 12.5243L39.4692 12.5715L39.3763 12.6234L39.2883 12.6801L39.2047 12.7463L39.1257 12.8123L39.0512 12.888L38.9769 12.9635L38.9074 13.0437L38.8378 13.1336L38.7681 13.2183L38.7031 13.313L38.8423 12.4581H37.5375L36.6691 17.5159Z" fill="white"/>
<path d="M36.6691 17.5159H37.9786V17.5159L38.4478 14.8287V14.8287L38.4661 14.725L38.4938 14.621L38.5219 14.5171L38.559 14.4134L38.6056 14.3094L38.6612 14.2103L38.7215 14.1157L38.796 14.0261L38.8795 13.9457L38.9722 13.8703L39.079 13.7993L39.1999 13.7427L39.3346 13.6955L39.4831 13.6578L39.6456 13.6293L39.8267 13.6199V13.6199H39.8918H39.9287H39.9427V13.6199L40.1515 12.4062V12.4062L40.0217 12.4156L39.8964 12.4298L39.7803 12.4533L39.6688 12.4864L39.5666 12.5243L39.4692 12.5715L39.3763 12.6234L39.2883 12.6801L39.2047 12.7463L39.1257 12.8123L39.0512 12.888L38.9769 12.9635L38.9074 13.0437L38.8378 13.1336L38.7681 13.2183L38.7031 13.313L38.8423 12.4581H37.5375L36.6691 17.5159V17.5159" stroke="white" stroke-width="0.216"/>
<path d="M24.3722 17.5159H25.6817H25.7051L26.1507 14.8287L26.1691 14.725L26.1924 14.6257L26.2157 14.5266L26.2482 14.4322L26.2853 14.3377L26.3316 14.2482L26.3874 14.1629L26.4525 14.0828L26.527 14.0117L26.6105 13.9412L26.7125 13.8844L26.824 13.8324L26.954 13.7898L27.098 13.7521L27.256 13.7284L27.4369 13.7143H27.4508L27.4696 13.719L27.4925 13.7238H27.5159L27.5392 13.7284L27.5576 13.7332L27.5717 13.7379H27.5762L27.581 13.719L27.5949 13.6624L27.6134 13.5775L27.6366 13.4735L27.6691 13.3507L27.7017 13.2183L27.7436 13.0862L27.7853 12.954L27.8222 12.8643L27.8688 12.7745L27.9152 12.6849L27.9616 12.6046L28.0035 12.5337L28.036 12.477L28.0593 12.4439L28.0683 12.4298H28.0638L28.0451 12.4252L28.0221 12.4204L27.9896 12.4156H27.957L27.9197 12.4109L27.8874 12.4062H27.8549L27.7108 12.4156L27.581 12.4298L27.4602 12.4533L27.3487 12.4818L27.2419 12.5196L27.1445 12.5667L27.0561 12.614L26.9724 12.6706L26.8936 12.732L26.8192 12.8028L26.7498 12.8737L26.6802 12.954L26.6105 13.0343L26.5454 13.124L26.4758 13.2183L26.4061 13.313L26.5732 12.4581H25.2406L24.3722 17.5159Z" fill="white"/>
<path d="M24.3722 17.5159H25.6817H25.7051L26.1507 14.8287V14.8287L26.1691 14.725L26.1924 14.6257L26.2157 14.5266L26.2482 14.4322L26.2853 14.3377L26.3316 14.2482L26.3874 14.1629L26.4525 14.0828L26.527 14.0117L26.6105 13.9412L26.7125 13.8844L26.824 13.8324L26.954 13.7898L27.098 13.7521L27.256 13.7284L27.4369 13.7143V13.7143H27.4508L27.4696 13.719L27.4925 13.7238H27.5159L27.5392 13.7284L27.5576 13.7332L27.5717 13.7379H27.5762V13.7379L27.581 13.719L27.5949 13.6624L27.6134 13.5775L27.6366 13.4735L27.6691 13.3507L27.7017 13.2183L27.7436 13.0862L27.7853 12.954V12.954L27.8222 12.8643L27.8688 12.7745L27.9152 12.6849L27.9616 12.6046L28.0035 12.5337L28.036 12.477L28.0593 12.4439L28.0683 12.4298V12.4298H28.0638L28.0451 12.4252L28.0221 12.4204L27.9896 12.4156H27.957L27.9197 12.4109L27.8874 12.4062H27.8549V12.4062L27.7108 12.4156L27.581 12.4298L27.4602 12.4533L27.3487 12.4818L27.2419 12.5196L27.1445 12.5667L27.0561 12.614L26.9724 12.6706L26.8936 12.732L26.8192 12.8028L26.7498 12.8737L26.6802 12.954L26.6105 13.0343L26.5454 13.124L26.4758 13.2183L26.4061 13.313L26.5732 12.4581H25.2406L24.3722 17.5159V17.5159" stroke="white" stroke-width="0.216"/>
</svg>
