<svg width="108" height="24" viewBox="0 0 108 24" fill="none" xmlns="http://www.w3.org/2000/svg">
<g clip-path="url(#clip0_2066_46911)">
<path d="M94.9362 12.0684C94.9362 9.15193 92.7293 6.79272 89.6122 6.79272C86.5568 6.79272 84.3811 9.06127 84.3811 12.1784C84.3811 15.3111 86.6184 17.5953 89.8284 17.5953C91.8652 17.5953 93.5779 16.6843 94.6427 14.8326L92.4826 13.8295C91.9736 14.7553 90.862 15.3572 89.8284 15.3572C88.517 15.3572 87.0048 14.3697 86.912 12.9965H94.8589C94.9096 12.6897 94.9354 12.3794 94.9362 12.0684ZM86.958 11.1768C87.1438 9.78798 88.1001 8.87774 89.6278 8.87774C91.1399 8.87774 92.0658 9.76941 92.1891 11.1768H86.958Z" fill="black"/>
<path d="M65.1895 6.79053C62.0568 6.79053 59.835 9.04421 59.835 12.223C59.835 15.3706 62.0568 17.5931 65.2207 17.5931C68.3995 17.5931 70.6212 15.3706 70.6212 12.2691C70.6212 9.07468 68.3378 6.79053 65.1895 6.79053ZM65.2207 15.2316C63.6462 15.2316 62.6742 14.0591 62.6742 12.2379C62.6742 10.3862 63.6618 9.12075 65.2207 9.12075C66.7945 9.12075 67.782 10.3706 67.782 12.2379C67.782 14.0747 66.8101 15.2316 65.2207 15.2316Z" fill="black"/>
<path d="M54.0347 6.79339C52.7515 6.79339 51.7848 7.23179 50.818 8.31888H50.5008C49.8513 7.33731 48.7917 6.79339 47.6028 6.79339C47.0092 6.78759 46.4228 6.92286 45.8917 7.18808C45.3606 7.4533 44.9001 7.84087 44.5481 8.31888H44.2309L44.2153 8.30402V7.00516H41.5596V17.3663H44.4293V12.0342C44.4293 10.3125 45.1545 9.30046 46.408 9.30046C47.5709 9.30046 48.3258 10.1617 48.3258 11.4754V17.3663H51.2104V12.0342C51.2104 10.3251 51.9356 9.30046 53.2047 9.30046C54.352 9.30046 55.0921 10.1617 55.0921 11.491V17.3663H57.9774V11.1432C57.9774 8.44 56.5269 6.79339 54.0347 6.79339Z" fill="black"/>
<path d="M101.318 13.7729H101.113C101.113 13.5886 99.8612 10.3073 99.0409 8.2743L98.5282 7.00293H95.6369L99.7386 17.4005L98.1224 21.3625H100.994L106.9 7.00665H104.007L103.536 8.09374L101.936 12.052C101.485 13.1577 101.3 13.6704 101.318 13.7729Z" fill="black"/>
<path d="M78.5801 6.79346C77.2961 6.79346 76.1934 7.35224 75.4533 8.34942H75.1509L75.1212 8.33455V7.00523H72.464V17.3664H75.3337V12.0647C75.3337 10.3735 76.151 9.31539 77.4937 9.31539C78.7473 9.31539 79.6687 10.2516 79.6687 11.7318V17.3657H82.5383V11.1136C82.5383 8.57605 80.8769 6.79346 78.5801 6.79346Z" fill="black"/>
<path d="M22.07 0.854248C15.8699 0.854248 10.8878 5.86987 10.8878 12.0001C10.8878 18.1808 15.919 23.1459 22.0685 23.1459C28.218 23.1459 33.2537 18.1303 33.2537 12.0001C33.2537 5.86987 28.2195 0.854248 22.07 0.854248ZM22.07 16.1545C19.7829 16.1545 17.9029 14.2798 17.9029 12.0001C17.9029 9.72039 19.7829 7.84566 22.07 7.84566C24.3571 7.84566 26.2378 9.72039 26.2378 12.0001C26.1865 14.2798 24.3571 16.1545 22.07 16.1545Z" fill="#8B3FFD"/>
<path d="M10.8877 4.09241V20.3044H6.92576L1.84326 4.09241H10.8877Z" fill="#8B3FFD"/>
</g>
<defs>
<clipPath id="clip0_2066_46911">
<rect width="107" height="23.7778" fill="white" transform="translate(0.930786 0.111084)"/>
</clipPath>
</defs>
</svg>
