<svg width="65" height="28" viewBox="0 0 65 28" fill="none" xmlns="http://www.w3.org/2000/svg">
<path fill-rule="evenodd" clip-rule="evenodd" d="M32.9975 22.7831C33.3354 22.7831 33.4946 22.6 33.4946 22.3309C33.4946 22.0446 33.3161 21.873 32.9927 21.873H32.4957V22.7831H32.9975ZM32.9523 21.5007C33.2321 21.5007 33.372 21.329 33.372 21.0599C33.372 20.7965 33.2321 20.6592 32.9378 20.6592H32.4939V21.5007H32.9523ZM32.027 20.2759H33.0352C33.5272 20.2759 33.8506 20.5334 33.8506 21.02C33.8506 21.3004 33.7252 21.5409 33.5033 21.6554V21.6612C33.8072 21.7471 33.9664 22.0275 33.9664 22.3481C33.9664 22.8863 33.5997 23.1724 33.069 23.1724H32.027V20.2759Z" fill="#FF8C00"/>
<path fill-rule="evenodd" clip-rule="evenodd" d="M36.6019 20.2759C37.0141 20.2759 37.4751 20.4016 37.7705 20.6803L37.4876 21.0519C37.2783 20.8661 36.9525 20.735 36.6264 20.735C35.9992 20.735 35.5442 21.1559 35.5442 21.7187C35.5442 22.2815 35.9992 22.7133 36.6449 22.7133C36.9894 22.7133 37.3645 22.5658 37.6044 22.3416L37.8443 22.7297C37.5613 22.9975 37.0878 23.1724 36.6019 23.1724C35.618 23.1724 34.9352 22.5548 34.9352 21.724C34.9352 20.9043 35.6242 20.2759 36.6019 20.2759Z" fill="#FF8C00"/>
<path fill-rule="evenodd" clip-rule="evenodd" d="M40.6168 18.8882H41.1027V18.3447H40.6168V18.8882ZM39.5836 18.8882H40.0756V18.3447H39.5836V18.8882ZM41.1195 20.4776C41.1011 20.0102 40.769 19.7632 40.363 19.7632C39.9019 19.7632 39.539 20.0263 39.4528 20.4776H41.1195ZM40.3763 19.3604C41.2558 19.3604 41.7232 19.9349 41.7232 20.6332C41.7232 20.7031 41.7108 20.7783 41.6985 20.8536H39.4353C39.466 21.439 39.9456 21.756 40.5054 21.756C40.8374 21.756 41.1758 21.6323 41.422 21.439L41.674 21.8204C41.3726 22.062 40.899 22.2071 40.4685 22.2071C39.4906 22.2071 38.8141 21.5895 38.8141 20.7837C38.8141 19.9189 39.4906 19.3604 40.3763 19.3604Z" fill="#FF8C00"/>
<path fill-rule="evenodd" clip-rule="evenodd" d="M44.6324 20.2759H47.5415V23.1724H46.903V20.751H45.2709V23.1724H44.6324V20.2759Z" fill="#FF8C00"/>
<path fill-rule="evenodd" clip-rule="evenodd" d="M49.9447 22.6756C50.4287 22.6756 50.8277 22.326 50.8277 21.7074C50.8277 21.1158 50.471 20.7339 49.9629 20.7339C49.5033 20.7339 49.0797 21.0244 49.0797 21.7128C49.0797 22.197 49.3822 22.6756 49.9447 22.6756ZM48.5114 20.3405H49.0556V20.5825C49.0556 20.6954 49.0374 20.7869 49.0374 20.7869H49.0495C49.2431 20.4588 49.6303 20.2759 50.0778 20.2759C50.9064 20.2759 51.4204 20.8568 51.4204 21.7013C51.4204 22.5672 50.8399 23.1267 50.0355 23.1267C49.6485 23.1267 49.2976 22.9546 49.0858 22.6641H49.0737C49.0737 22.6641 49.0979 22.7609 49.0979 22.9007V24.1379H48.5114V20.3405Z" fill="#FF8C00"/>
<path fill-rule="evenodd" clip-rule="evenodd" d="M53.3647 22.7141C54.041 22.7141 54.6031 22.2988 54.6031 21.7195C54.6031 21.1456 54.041 20.7358 53.3647 20.7358C52.6817 20.7358 52.1266 21.1456 52.1266 21.7195C52.1266 22.2988 52.6817 22.7141 53.3647 22.7141ZM53.3573 20.2759C54.4321 20.2759 55.3003 20.8825 55.3003 21.7187C55.3003 22.5603 54.4321 23.1724 53.3645 23.1724C52.2897 23.1724 51.4215 22.5603 51.4215 21.7187C51.4215 20.8825 52.2897 20.2759 53.3573 20.2759Z" fill="#FF8C00"/>
<path fill-rule="evenodd" clip-rule="evenodd" d="M55.3004 20.2759H55.7973V22.8794H56.7962V20.2759H57.2985V22.8794H58.2976V20.2759H58.7947V22.8794H59.1792V24.1379H58.7037V23.3977H55.3004V20.2759Z" fill="#FF8C00"/>
<path fill-rule="evenodd" clip-rule="evenodd" d="M63.4262 21.4134C63.4077 20.9378 63.0755 20.6865 62.6697 20.6865C62.2085 20.6865 61.8455 20.9543 61.7594 21.4134H63.4262ZM62.6811 20.2759C63.5605 20.2759 64.0279 20.8606 64.0279 21.571C64.0279 21.6422 64.0155 21.7187 64.0033 21.7953H61.7399C61.7708 22.3909 62.2505 22.7133 62.8102 22.7133C63.1423 22.7133 63.4806 22.5876 63.7267 22.3909L63.9786 22.779C63.6775 23.0248 63.2038 23.1724 62.7733 23.1724C61.7955 23.1724 61.1188 22.544 61.1188 21.7242C61.1188 20.8443 61.7955 20.2759 62.6811 20.2759Z" fill="#FF8C00"/>
<path fill-rule="evenodd" clip-rule="evenodd" d="M40.1085 17.3313C40.0163 17.4068 39.9085 17.3915 39.832 17.301L39.0943 16.3359C38.4185 15.4459 37.5578 14.888 35.9597 14.888C32.948 14.888 31.0582 12.7614 31.0582 9.38272C31.0582 5.98906 32.948 3.8623 35.9597 3.8623C38.9715 3.8623 40.8462 5.98906 40.8462 9.38272C40.8462 11.1021 40.2316 12.8516 39.2018 13.4551C39.0175 13.5609 39.0175 13.6059 39.2018 13.6663C40.0931 13.9829 40.5079 14.3601 40.9843 14.9633L41.6757 15.8832C41.7525 15.9737 41.7372 16.0791 41.6449 16.1549L40.1085 17.3313ZM35.9588 12.7158C37.4494 12.7158 38.3404 11.4489 38.3404 9.38264C38.3404 7.2709 37.4494 6.04932 35.9588 6.04932C34.4991 6.04932 33.5621 7.2709 33.5621 9.38264C33.5621 11.4489 34.4991 12.7158 35.9588 12.7158Z" fill="#0023A0"/>
<path fill-rule="evenodd" clip-rule="evenodd" d="M44.6324 14.2882C44.6324 14.4083 44.5725 14.483 44.4769 14.483H42.8486C42.7529 14.483 42.693 14.4083 42.693 14.2882V4.05725C42.693 3.93755 42.7529 3.8623 42.8486 3.8623H44.4769C44.5725 3.8623 44.6324 3.93755 44.6324 4.05725V14.2882Z" fill="#0023A0"/>
<path fill-rule="evenodd" clip-rule="evenodd" d="M58.2555 11.2624C57.9805 12.2961 57.751 13.2848 57.5526 14.3034C57.5371 14.4232 57.4606 14.483 57.3384 14.483H54.5416C54.4196 14.483 54.3429 14.4232 54.3279 14.3034C54.1597 13.4347 53.9915 12.6407 53.7774 11.8165L53.3039 9.86943C53.2122 9.48007 53.0897 8.85059 52.9979 8.3262C52.9675 8.1166 52.7843 8.1166 52.7535 8.3262C52.6618 8.85059 52.5397 9.46488 52.448 9.86943L51.9741 11.8165C51.7755 12.6407 51.6073 13.4347 51.4238 14.3034C51.4088 14.4232 51.3321 14.483 51.2102 14.483H48.4133C48.2909 14.483 48.2144 14.4232 48.1992 14.3034C48.0005 13.2848 47.7714 12.2961 47.4963 11.2624L45.6165 4.07217C45.5707 3.95219 45.647 3.8623 45.7846 3.8623H47.8935C48.016 3.8623 48.0924 3.92237 48.1229 4.02703L49.162 8.07159C49.4219 9.09029 49.6359 10.3936 49.7276 11.3672C49.7428 11.5619 49.9722 11.5771 50.0027 11.3672C50.1401 10.4085 50.3849 9.09029 50.6751 8.07159L51.7907 4.02703C51.8212 3.92237 51.8976 3.8623 52.0046 3.8623H53.7469C53.854 3.8623 53.9303 3.92237 53.9608 4.02703L55.0919 8.07159C55.3821 9.09029 55.6268 10.4085 55.7644 11.3672C55.7796 11.5771 56.0091 11.5619 56.0242 11.3672C56.1006 10.3936 56.3297 9.09029 56.5895 8.07159L57.6289 4.02703C57.6593 3.92237 57.7355 3.8623 57.8581 3.8623H59.9671C60.1048 3.8623 60.1812 3.95219 60.1352 4.07217L58.2555 11.2624Z" fill="#0023A0"/>
<path fill-rule="evenodd" clip-rule="evenodd" d="M64.027 14.2882C64.027 14.4083 63.9672 14.483 63.8715 14.483H62.2432C62.1475 14.483 62.0876 14.4083 62.0876 14.2882V4.05725C62.0876 3.93755 62.1475 3.8623 62.2432 3.8623H63.8715C63.9672 3.8623 64.027 3.93755 64.027 4.05725V14.2882Z" fill="#0023A0"/>
<path fill-rule="evenodd" clip-rule="evenodd" d="M18.8464 19.6689C18.5956 19.6689 18.3863 19.7562 18.2576 19.9147C17.9279 20.3201 18.0761 21.034 18.5811 21.4741C18.8015 21.6661 19.1189 21.781 19.4305 21.781C19.7478 21.781 20.0125 21.6622 20.1759 21.4469C20.4697 21.0541 20.3006 20.4973 19.7454 20.029C19.4705 19.797 19.1513 19.6689 18.8464 19.6689ZM21.6133 17.6317C21.3678 17.5601 21.1842 17.6134 21.0937 17.7786C20.9565 18.0285 21.0578 18.5229 21.3345 18.9536C21.6149 19.3901 21.8527 19.6113 22.042 19.6113C22.1073 19.6113 22.1657 19.5839 22.2111 19.5324C22.3164 19.4118 22.3512 19.1592 22.3069 18.8396C22.2624 18.5131 22.0615 17.8414 21.6133 17.6317ZM27.0959 27.5299C27.3497 27.8435 26.9637 28.162 26.676 27.9075C23.8028 25.3687 21.3864 24.6496 18.9964 24.5499C17.728 24.4971 16.4672 24.6183 15.1491 24.7345C14.8859 24.7577 14.6204 24.7807 14.3518 24.8019C14.2346 24.8114 14.1166 24.8202 13.9987 24.8289C13.5339 24.8788 13.063 24.9054 12.5853 24.9054C10.3365 24.9054 8.21457 24.3557 6.27752 23.2708C4.33358 22.183 2.78861 20.6635 1.6858 18.7544C0.584934 16.8495 0.0269775 14.7446 0.0269775 12.498C0.0269775 10.2538 0.584382 8.13989 1.6836 6.21534C2.78502 4.28789 4.31232 2.75336 6.22315 1.65472C8.13397 0.556757 10.2183 0 12.4186 0C14.7166 0 16.8643 0.550011 18.8023 1.63489C20.7459 2.7228 22.2955 4.24686 23.4087 6.16536C24.5198 8.08152 25.0831 10.1919 25.0831 12.438C25.0831 13.305 24.9988 14.1517 24.8333 14.9752C24.8121 15.0947 24.7813 15.2395 24.738 15.4083C24.7057 15.5434 24.6712 15.678 24.6343 15.8118L24.624 15.806C24.4014 16.517 23.9869 17.5233 23.2156 18.8153C23.1325 18.9512 23.0866 18.8477 23.0758 18.7717C22.8059 16.8714 21.9711 15.4283 20.4997 14.4962C20.4755 14.4809 20.4507 14.4662 20.4261 14.4513C20.185 14.3033 19.9275 14.1688 19.6527 14.0477C19.3021 13.8936 18.9238 13.7607 18.517 13.6512C18.2674 13.5842 17.7113 13.613 17.913 13.4134C17.9963 13.3312 19.201 13.3123 20.5859 13.3999C20.6128 13.4016 20.6398 13.4032 20.6669 13.405C20.6925 13.1153 20.7057 12.8184 20.7057 12.5137C20.7057 10.1425 19.919 8.20914 18.3003 6.60358C16.6804 4.99691 14.7864 4.21561 12.5097 4.21561C10.1784 4.21561 8.28799 4.99774 6.73087 6.60688C5.16534 8.22401 4.40451 10.1411 4.40451 12.4677C4.40451 14.7895 5.18686 16.6985 6.79642 18.3039C8.40598 19.9095 10.2747 20.6902 12.5097 20.6902C12.6169 20.6902 12.7228 20.6869 12.8286 20.6836C12.8262 20.6566 12.8244 20.6296 12.8222 20.6031C12.6937 18.9661 12.6665 17.6061 13.0036 18.1548C13.1227 18.3488 13.2413 18.532 13.3594 18.7084C13.8002 19.3656 14.2363 19.9066 14.6705 20.3551C14.6923 20.3775 14.7141 20.3994 14.7362 20.4215C16.3249 22.0302 17.8888 22.426 19.5513 22.833C19.5868 22.8419 19.6221 22.8506 19.6574 22.8591C19.9296 22.926 20.2045 22.9938 20.4827 23.068C22.4587 23.594 24.5986 24.4421 27.0959 27.5299Z" fill="#FF8C00"/>
</svg>
