<svg width="28" height="32" viewBox="0 0 28 32" fill="none" xmlns="http://www.w3.org/2000/svg">
<path fill-rule="evenodd" clip-rule="evenodd" d="M27.2008 5.18162L14.4971 0.0955547C14.1788 -0.0318203 13.8211 -0.0318828 13.5029 0.0955547L0.799231 5.18162C0.315389 5.37537 0 5.83087 0 6.33605V12.5189C0 21.0322 5.33614 28.6901 13.5101 31.9073C13.8241 32.0309 14.1758 32.0309 14.4899 31.9073C22.6637 28.6902 28 21.0322 28 12.5189V6.33605C28 5.83087 27.6847 5.37537 27.2008 5.18162ZM25.4074 12.5189C25.4074 19.7561 21 26.4184 14 29.3922C7.18706 26.4978 2.59259 19.9522 2.59259 12.5189V7.17055L14 2.60343L25.4074 7.17055V12.5189ZM12.5672 16.7322L18.1389 11.3596C18.6451 10.8714 19.4659 10.8714 19.9722 11.3596C20.4784 11.8477 20.4784 12.6392 19.9721 13.1273L13.4838 19.3839C12.9775 19.8721 12.1567 19.8719 11.6506 19.3839L8.02783 15.8905C7.52156 15.4023 7.52156 14.6109 8.02783 14.1227C8.5341 13.6346 9.35485 13.6346 9.86106 14.1227L12.5672 16.7322Z" fill="#F75DB8"/>
</svg>
