<svg width="102" height="102" viewBox="0 0 102 102" fill="none" xmlns="http://www.w3.org/2000/svg">
<g id="smiley" filter="url(#filter0_d_1861_18777)">
<path id="Path" d="M73.1875 87H28.8125C21.4596 87 15.5 80.9565 15.5 73.5V28.5C15.5 21.0435 21.4596 15 28.8125 15H73.1875C80.5404 15 86.5 21.0435 86.5 28.5V73.5C86.5 80.9565 80.5404 87 73.1875 87Z" fill="white"/>
<path id="Shape" fill-rule="evenodd" clip-rule="evenodd" d="M33.5 51C33.5 41.0708 41.5708 33 51.5 33C61.4292 33 69.5 41.0708 69.5 51C69.5 60.9292 61.4292 69 51.5 69C41.5708 69 33.5 60.9292 33.5 51ZM40.3108 55.5C41.9893 60.2407 46.4757 63.42 51.5 63.42C56.5243 63.42 61.0108 60.2407 62.6938 55.5C62.813 55.1557 62.7523 54.78 62.543 54.4807C62.3315 54.1815 61.9872 54.0015 61.6272 54.0015H41.3773C41.0173 54.0015 40.6708 54.1815 40.4615 54.4807C40.25 54.78 40.1915 55.1557 40.3108 55.5ZM44.75 47.2493C45.5758 47.2493 46.2507 46.5743 46.2507 45.7485C46.2507 45.1342 46.7615 44.6235 47.3757 44.6235C47.99 44.6235 48.5007 45.1342 48.5007 45.7485C48.5007 47.8185 46.82 49.4993 44.75 49.4993C42.68 49.4993 40.9992 47.8185 40.9992 45.7485C40.9992 45.1342 41.51 44.6235 42.1243 44.6235C42.7385 44.6235 43.2493 45.1342 43.2493 45.7485C43.2493 46.5743 43.9242 47.2493 44.75 47.2493ZM59.7508 45.7485C59.7508 46.5743 59.0758 47.2493 58.25 47.2493C57.4242 47.2493 56.7493 46.5743 56.7493 45.7485C56.7493 45.1342 56.2385 44.6235 55.6243 44.6235C55.01 44.6235 54.4993 45.1342 54.4993 45.7485C54.4993 47.8185 56.18 49.4993 58.25 49.4993C60.32 49.4993 62.0008 47.8185 62.0008 45.7485C62.0008 45.1342 61.49 44.6235 60.8758 44.6235C60.2615 44.6235 59.7508 45.1342 59.7508 45.7485Z" fill="#F75DB8"/>
</g>
<defs>
<filter id="filter0_d_1861_18777" x="0.5" y="0" width="101" height="102" filterUnits="userSpaceOnUse" color-interpolation-filters="sRGB">
<feFlood flood-opacity="0" result="BackgroundImageFix"/>
<feColorMatrix in="SourceAlpha" type="matrix" values="0 0 0 0 0 0 0 0 0 0 0 0 0 0 0 0 0 0 127 0" result="hardAlpha"/>
<feOffset/>
<feGaussianBlur stdDeviation="7.5"/>
<feColorMatrix type="matrix" values="0 0 0 0 0.0509804 0 0 0 0 0.113725 0 0 0 0 0.290196 0 0 0 0.11 0"/>
<feBlend mode="normal" in2="BackgroundImageFix" result="effect1_dropShadow_1861_18777"/>
<feBlend mode="normal" in="SourceGraphic" in2="effect1_dropShadow_1861_18777" result="shape"/>
</filter>
</defs>
</svg>
