<svg width="60" height="20" viewBox="0 0 60 20" fill="none" xmlns="http://www.w3.org/2000/svg">
<g clip-path="url(#clip0_2066_46972)">
<path d="M38.7624 0.597656C34.6415 0.597656 30.9589 2.73359 30.9589 6.67989C30.9589 11.2055 37.4901 11.5181 37.4901 13.7917C37.4901 14.749 36.3931 15.6059 34.5193 15.6059C31.8601 15.6059 29.8726 14.4085 29.8726 14.4085L29.0222 18.3908C29.0222 18.3908 31.3118 19.4022 34.3515 19.4022C38.8569 19.4022 42.4022 17.1614 42.4022 13.1476C42.4022 8.36547 35.8437 8.06217 35.8437 5.95192C35.8437 5.20201 36.7443 4.38034 38.6127 4.38034C40.7208 4.38034 42.4407 5.25117 42.4407 5.25117L43.273 1.40499C43.273 1.40499 41.4016 0.597656 38.7624 0.597656ZM1.06026 0.887935L0.96048 1.46849C0.96048 1.46849 2.69414 1.78578 4.25559 2.4187C6.26608 3.14447 6.4093 3.56697 6.7479 4.87926L10.4376 19.1029H15.3837L23.0035 0.887935H18.0687L13.1726 13.2724L11.1746 2.77474C10.9914 1.5733 10.0633 0.887935 8.92725 0.887935H1.06026ZM24.9878 0.887935L21.1166 19.1029H25.8223L29.6798 0.887935H24.9878ZM51.233 0.887935C50.0983 0.887935 49.4971 1.49544 49.0559 2.55703L42.1618 19.1029H47.0965L48.0513 16.3452H54.0632L54.6437 19.1029H58.9979L55.1994 0.887935H51.233ZM51.8748 5.80905L53.3375 12.6442H49.4187L51.8748 5.80905Z" fill="#1434CB"/>
</g>
<defs>
<clipPath id="clip0_2066_46972">
<rect width="58.0955" height="18.8627" fill="white" transform="translate(0.931427 0.568726)"/>
</clipPath>
</defs>
</svg>
